<?xml version="1.0" encoding="utf-8"?>
<!-- Generator: Adobe Illustrator 19.2.0, SVG Export Plug-In . SVG Version: 6.00 Build 0)  -->
<svg version="1.1" id="Layer_1" xmlns="http://www.w3.org/2000/svg" xmlns:xlink="http://www.w3.org/1999/xlink" x="0px" y="0px"
	 viewBox="0 0 176 150" style="enable-background:new 0 0 176 150;" xml:space="preserve">
<style type="text/css">
	.st0{fill:#7C634F;}
	.st1{fill:#D0D2D3;}
	.st2{fill:#6ECAF3;}
	.st3{fill:#CED0D1;}
	.st4{fill:#F6CC78;}
	.st5{fill:#BBBDBF;}
	.st6{fill:#58595B;}
	.st7{fill:#FFB4D3;}
	.st8{fill:#A6A8AB;}
	.st9{opacity:0.2;fill:#FFFFFF;}
	.st10{fill:#4F3E31;}
	.st11{fill:#EBEBEC;}
	.st12{fill:#E0E1E2;}
	.st13{fill:#D1D2D4;}
	.st14{fill:#534235;}
	.st15{fill:#4A3A2E;}
	.st16{fill:#F8C1D9;}
	.st17{fill:#FFFFFF;}
	.st18{fill:#E4E5E6;}
	.st19{fill:#836854;}
	.st20{fill:#745D4A;}
	.st21{fill:#F3A5C8;}
	.st22{fill:#66493C;}
	.st23{fill:#6F5043;}
	.st24{fill:#4C3C34;}
</style>
<circle class="st1" cx="88" cy="105" r="4"/>
<path class="st1" d="M174,94v16.09c0,4.37-3.54,7.91-7.91,7.91H151v-9.64c0-0.75-0.61-1.36-1.36-1.36h-21.28
	c-0.75,0-1.36,0.61-1.36,1.36V118h-25H73H9.91C5.54,118,2,114.46,2,110.09V94H174z M92,105c0-2.21-1.79-4-4-4s-4,1.79-4,4
	s1.79,4,4,4S92,107.21,92,105z"/>
<path class="st2" d="M174,14v80H2V14H174z"/>
<path class="st3" d="M174,9.91V14H2V9.91C2,5.54,5.54,2,9.91,2h156.18C170.46,2,174,5.54,174,9.91z M27,8c0-1.1-0.9-2-2-2
	s-2,0.9-2,2s0.9,2,2,2S27,9.1,27,8z M20,8c0-1.1-0.9-2-2-2s-2,0.9-2,2s0.9,2,2,2S20,9.1,20,8z M13,8c0-1.1-0.9-2-2-2S9,6.9,9,8
	s0.9,2,2,2S13,9.1,13,8z"/>
<path class="st4" d="M151,118v11.64c0,0.75-0.61,1.36-1.36,1.36h-21.28c-0.75,0-1.36-0.61-1.36-1.36V118v-9.64
	c0-0.75,0.61-1.36,1.36-1.36h21.28c0.75,0,1.36,0.61,1.36,1.36V118z"/>
<path class="st5" d="M105.2,143c0.42,2.61-1.6,4.98-4.24,4.98H74.04c-2.64,0-4.66-2.37-4.24-4.98l3.2-25h29L105.2,143z"/>
<circle class="st6" cx="25" cy="8" r="2"/>
<circle class="st6" cx="18" cy="8" r="2"/>
<g>
	<path class="st7" d="M66,59.539v12.922C66,73.311,65.311,74,64.461,74H51.539C50.689,74,50,73.311,50,72.461V59.539
		C50,58.689,50.689,58,51.539,58h12.922C65.311,58,66,58.689,66,59.539z"/>
	<path class="st7" d="M66,35.539v12.922C66,49.311,65.311,50,64.461,50H51.539C50.689,50,50,49.311,50,48.461V35.539
		C50,34.689,50.689,34,51.539,34h12.922C65.311,34,66,34.689,66,35.539z"/>
	<path class="st6" d="M64.461,52H51.539C49.587,52,48,50.413,48,48.461V35.539C48,33.587,49.587,32,51.539,32h12.922
		C66.413,32,68,33.587,68,35.539v12.922C68,50.413,66.413,52,64.461,52z M52,48h12V36H52V48z"/>
	<path class="st6" d="M64.461,76H51.539C49.587,76,48,74.413,48,72.461V59.539C48,57.587,49.587,56,51.539,56h12.922
		C66.413,56,68,57.587,68,59.539v12.922C68,74.413,66.413,76,64.461,76z M52,72h12V60H52V72z"/>
	<path class="st6" d="M115,44H74c-1.104,0-2-0.896-2-2s0.896-2,2-2h41c1.104,0,2,0.896,2,2S116.104,44,115,44z"/>
	<path class="st6" d="M121,52H74c-1.104,0-2-0.896-2-2s0.896-2,2-2h47c1.104,0,2,0.896,2,2S122.104,52,121,52z"/>
	<path class="st6" d="M126,60H74c-1.104,0-2-0.896-2-2s0.896-2,2-2h52c1.104,0,2,0.896,2,2S127.104,60,126,60z"/>
	<path class="st6" d="M119,68H74c-1.104,0-2-0.896-2-2s0.896-2,2-2h45c1.104,0,2,0.896,2,2S120.104,68,119,68z"/>
	<path class="st6" d="M123,76H74c-1.104,0-2-0.896-2-2s0.896-2,2-2h49c1.104,0,2,0.896,2,2S124.104,76,123,76z"/>
	<path class="st6" d="M123,36H74c-1.104,0-2-0.896-2-2s0.896-2,2-2h49c1.104,0,2,0.896,2,2S124.104,36,123,36z"/>
</g>
<circle class="st6" cx="11" cy="8" r="2"/>
<polygon class="st8" points="103.279,126 102,118 73,118 71.72,126 "/>
<path class="st9" d="M174,92V14V9.91c0-4.37-3.54-7.91-7.91-7.91H92L174,92z"/>
<g>
	<path class="st6" d="M166.09,0H9.91C4.446,0,0,4.446,0,9.91v100.18c0,5.465,4.446,9.91,9.91,9.91h60.818l-2.903,22.683
		c-0.181,1.125-0.051,2.261,0.356,3.298H40.043c-1.104,0-2,0.896-2,2s0.896,2,2,2H135c1.104,0,2-0.896,2-2s-0.896-2-2-2h-28.18
		c0.407-1.03,0.539-2.149,0.364-3.234L104.272,120H125v9.64c0,1.853,1.507,3.36,3.36,3.36h21.28c1.853,0,3.36-1.508,3.36-3.36V120
		h13.09c5.464,0,9.91-4.445,9.91-9.91V9.91C176,4.446,171.554,0,166.09,0z M4,16h168v76H4V16z M9.91,4h156.18
		c3.259,0,5.91,2.651,5.91,5.91V12H4V9.91C4,6.651,6.651,4,9.91,4z M74.04,145.98c-0.681,0-1.301-0.287-1.745-0.808
		c-0.444-0.521-0.629-1.181-0.512-1.919L74.76,120h25.479l2.986,23.317c0.108,0.675-0.077,1.334-0.521,1.855
		c-0.444,0.521-1.063,0.808-1.745,0.808H74.04z M149,129h-20v-20h20V129z M166.09,116H153v-7.64c0-1.853-1.507-3.36-3.36-3.36
		h-21.28c-1.853,0-3.36,1.508-3.36,3.36V116h-21.24H102H73h-1.76H9.91C6.651,116,4,113.349,4,110.09V96h168v14.09
		C172,113.349,169.349,116,166.09,116z"/>
	<path class="st6" d="M88,100c-3.309,0-6,2.691-6,6s2.691,6,6,6s6-2.691,6-6S91.309,100,88,100z M88,108c-1.103,0-2-0.897-2-2
		s0.897-2,2-2s2,0.897,2,2S89.103,108,88,108z"/>
	<path class="st6" d="M145.631,115.103c-0.867-0.29-1.796,0.051-2.287,0.774l-0.885-1.771c-0.356-0.711-1.107-1.155-1.894-1.103
		c-0.794,0.042-1.488,0.55-1.768,1.295l-1.127,3.006l-1.127-3.006c-0.279-0.744-0.973-1.253-1.767-1.295
		c-0.799-0.052-1.538,0.39-1.894,1.101l-1.67,3.33c-0.495,0.987-0.096,2.189,0.891,2.685c0.757,0.379,1.642,0.232,2.236-0.303
		l1.458,3.887c0.292,0.78,1.039,1.298,1.873,1.298s1.58-0.518,1.873-1.298l1.39-3.705l0.949,1.897
		c0.362,0.724,1.122,1.154,1.932,1.101c0.807-0.058,1.5-0.597,1.755-1.364l1.33-4C147.247,116.583,146.679,115.451,145.631,115.103z
		"/>
</g>
</svg>
