<?xml version="1.0" encoding="utf-8"?>
<!-- Generator: Adobe Illustrator 19.2.1, SVG Export Plug-In . SVG Version: 6.00 Build 0)  -->
<svg version="1.1" id="Layer_1" xmlns="http://www.w3.org/2000/svg" xmlns:xlink="http://www.w3.org/1999/xlink" x="0px" y="0px"
	 viewBox="0 0 70 150" style="enable-background:new 0 0 70 150;" xml:space="preserve">
<style type="text/css">
	.st0{fill:#C3D79B;}
	.st1{fill:#FFFEEE;}
	.st2{fill:#96B98A;}
	.st3{fill:#E1B98A;}
	.st4{fill:#87A77C;}
	.st5{fill:#CCA87E;}
	.st6{fill:#E9BACE;}
	.st7{fill:#FFFFFF;}
	.st8{fill:#F1F2F2;}
	.st9{fill:#CFA6B9;}
	.st10{fill:#947A7C;}
	.st11{fill:#59A7F1;}
	.st12{fill:#F0F1F1;}
	.st13{fill:#59B4FF;}
	.st14{fill:#23C7E3;}
	.st15{fill:#FFED98;}
	.st16{fill:#DBDCDD;}
	.st17{fill:#23B4D1;}
	.st18{fill:#4795F1;}
	.st19{fill:#FEDB8B;}
	.st20{fill:#2270CC;}
	.st21{fill:#FFD624;}
	.st22{fill:#FFB724;}
	.st23{fill:#14DB84;}
	.st24{fill:#14AF68;}
	.st25{fill:#58595B;}
	.st26{fill:#8AA860;}
	.st27{fill:#FF899B;}
	.st28{fill:#FF7A8E;}
	.st29{fill:#7E9B57;}
	.st30{fill:#FFB8C6;}
	.st31{fill:#845B5F;}
	.st32{fill:#F0C956;}
	.st33{fill:#F0BE45;}
	.st34{fill:#E9C956;}
	.st35{fill:#58393E;}
	.st36{fill:#0094D3;}
	.st37{fill:#2484C6;}
	.st38{fill:#8E6D6A;}
	.st39{fill:#826461;}
	.st40{fill:none;stroke:#58393E;stroke-width:4;stroke-linecap:round;stroke-linejoin:round;stroke-miterlimit:10;}
	.st41{fill:#005A99;}
	.st42{fill:#414042;}
	.st43{fill:#3C3B3D;}
	.st44{fill:#005490;}
	.st45{fill:#0087EE;}
	.st46{fill:#4ED1FF;}
	.st47{fill:#9CAD8C;}
</style>
<path class="st46" d="M65.927,14H67c1.657,0,3-1.343,3-3V3c0-1.657-1.343-3-3-3h-8c-1.657,0-3,1.343-3,3v8c0,1.657,1.343,3,3,3
	h0.907c-0.836,10.325-8.073,19.103-17.909,21.983C41.989,34.334,40.651,33,39,33h-8c-1.65,0-2.987,1.333-2.998,2.98
	C18.167,33.094,10.929,24.317,10.093,14H11c1.657,0,3-1.343,3-3V3c0-1.657-1.343-3-3-3H3C1.343,0,0,1.343,0,3v8c0,1.657,1.343,3,3,3
	h1.073c0.608,9.316,5.422,17.676,12.651,23h-3.409c-1.126-2.361-3.53-4-6.315-4c-3.859,0-7,3.14-7,7s3.141,7,7,7
	c2.785,0,5.188-1.639,6.315-4H28v1c0,1.657,1.343,3,3,3h0.042L7.364,90.567c-0.394,0.724-0.472,1.577-0.217,2.36L20.18,133H14
	c-1.657,0-3,1.343-3,3v11c0,1.657,1.343,3,3,3h42c1.657,0,3-1.343,3-3v-11c0-1.657-1.343-3-3-3h-5.305l12.176-40.129
	c0.232-0.769,0.148-1.599-0.235-2.304L38.958,47H39c1.657,0,3-1.343,3-3v-1h14.685c1.126,2.361,3.53,4,6.315,4c3.859,0,7-3.14,7-7
	s-3.141-7-7-7c-2.785,0-5.188,1.639-6.315,4h-3.4C60.509,31.678,65.319,23.318,65.927,14z M62,6h2v2h-2V6z M6,6h2v2H6V6z M35,92
	c0.552,0,1,0.448,1,1s-0.448,1-1,1s-1-0.448-1-1S34.448,92,35,92z M34,39h2v2h-2V39z M7,41c-0.552,0-1-0.449-1-1s0.448-1,1-1
	s1,0.449,1,1S7.552,41,7,41z M43.802,135.054l-0.029,0.1c-0.468,1.59,0.442,3.257,2.031,3.725c0.283,0.083,0.567,0.123,0.848,0.123
	c0.067,0,0.132-0.012,0.198-0.016C46.901,138.987,46.948,139,47,139h6v5H17v-5h7.296c0.004,0,0.008,0.001,0.012,0.001
	S24.317,139,24.321,139H35c1.657,0,3-1.343,3-3s-1.343-3-3-3h-8.512L13.252,92.299L32,57.802v28.883c-2.361,1.126-4,3.53-4,6.315
	c0,3.859,3.141,7,7,7s7-3.141,7-7c0-2.785-1.639-5.188-4-6.315V57.803L56.765,92.33L43.802,135.054z M63,39c0.552,0,1,0.449,1,1
	s-0.448,1-1,1s-1-0.449-1-1S62.448,39,63,39z"/>
</svg>
