<?xml version="1.0" encoding="iso-8859-1"?>
<!-- Generator: Adobe Illustrator 18.0.0, SVG Export Plug-In . SVG Version: 6.00 Build 0)  -->
<!DOCTYPE svg PUBLIC "-//W3C//DTD SVG 1.1//EN" "http://www.w3.org/Graphics/SVG/1.1/DTD/svg11.dtd">
<svg version="1.1" id="Camada_1" xmlns="http://www.w3.org/2000/svg" xmlns:xlink="http://www.w3.org/1999/xlink" x="0px" y="0px"
	 viewBox="0 0 302 533.973" style="enable-background:new 0 0 302 533.973;" xml:space="preserve">
<ellipse style="fill:#808080;stroke:#41475D;stroke-width:2;stroke-miterlimit:10;" cx="145.124" cy="520.797" rx="145.124" ry="5.212"/>
<path style="fill:#998F70;stroke:#41475D;stroke-width:4;stroke-miterlimit:10;" d="M147.888,374.342h-2.198
	c-10.329,0-18.703-8.374-18.703-18.703v-26.964h37.011v29.557C163.998,367.13,156.785,374.342,147.888,374.342z"/>
<g>
	<path style="fill:#FCEE21;stroke:#41475D;stroke-width:4;stroke-miterlimit:10;" d="M125.422,356.477l-96.393,48.437
		C24.738,407.07,22,411.67,22,416.725l10.33,57.459l112.68-1.445l1.006-96.962c0.017-1.616-0.685-3.145-1.891-4.125L125.422,356.477
		z"/>
	<path style="fill:#FCEE21;stroke:#41475D;stroke-width:4;stroke-miterlimit:10;" d="M163.884,356.477l96.393,48.437
		c4.291,2.156,7.028,6.757,7.028,11.811l-13.36,56.435l-109.65-0.421l-1.006-96.962c-0.017-1.616,0.685-3.145,1.891-4.125
		L163.884,356.477z"/>
	<g>
		
			<line style="fill:#FCEE21;stroke:#41475D;stroke-width:4;stroke-miterlimit:10;" x1="59.755" y1="432.421" x2="63.922" y2="473.159"/>
		
			<line style="fill:#FCEE21;stroke:#41475D;stroke-width:4;stroke-miterlimit:10;" x1="61.144" y1="445.995" x2="69.659" y2="431.014"/>
	</g>
	<g>
		
			<line style="fill:#FCEE21;stroke:#41475D;stroke-width:4;stroke-miterlimit:10;" x1="233.538" y1="433.445" x2="229.371" y2="474.183"/>
		
			<line style="fill:#FCEE21;stroke:#41475D;stroke-width:4;stroke-miterlimit:10;" x1="232.149" y1="447.019" x2="223.634" y2="432.038"/>
	</g>
</g>
<g>
	<path style="fill:#0AA2E5;stroke:#41475D;stroke-width:2;stroke-miterlimit:10;" d="M172.581,397.367h11.985
		c7.522,0,13.619,7.95,13.619,17.758v0c0,9.807-6.097,17.758-13.619,17.758h-11.985c-7.522,0-13.619-7.95-13.619-17.758v0
		C158.962,405.317,165.06,397.367,172.581,397.367z"/>
	
		<line style="fill:#0AA2E5;stroke:#41475D;stroke-width:2;stroke-miterlimit:10;" x1="158.962" y1="426.726" x2="198.185" y2="426.726"/>
	
		<line style="fill:#0AA2E5;stroke:#41475D;stroke-width:2;stroke-miterlimit:10;" x1="158.962" y1="421.517" x2="198.185" y2="421.517"/>
	
		<line style="fill:#0AA2E5;stroke:#41475D;stroke-width:2;stroke-miterlimit:10;" x1="158.962" y1="415.361" x2="198.185" y2="415.361"/>
	
		<line style="fill:#0AA2E5;stroke:#41475D;stroke-width:2;stroke-miterlimit:10;" x1="158.962" y1="408.732" x2="198.185" y2="408.732"/>
	<path style="fill:#0AA2E5;stroke:#41475D;stroke-width:2;stroke-miterlimit:10;" d="M250.483,365.613"/>
	<path style="fill:#0AA2E5;stroke:#41475D;stroke-width:2;stroke-miterlimit:10;" d="M211.26,365.613"/>
	<path style="fill:#0AA2E5;stroke:#41475D;stroke-width:2;stroke-miterlimit:10;" d="M192.011,432.882"/>
	<path style="fill:#0AA2E5;stroke:#41475D;stroke-width:2;stroke-miterlimit:10;" d="M192.011,397.367"/>
	
		<line style="fill:#0AA2E5;stroke:#41475D;stroke-width:2;stroke-miterlimit:10;" x1="184.748" y1="397.367" x2="184.748" y2="432.882"/>
	
		<line style="fill:#0AA2E5;stroke:#41475D;stroke-width:2;stroke-miterlimit:10;" x1="177.847" y1="397.367" x2="177.847" y2="432.882"/>
	
		<line style="fill:#0AA2E5;stroke:#41475D;stroke-width:2;stroke-miterlimit:10;" x1="171.31" y1="397.367" x2="171.31" y2="432.882"/>
	<path style="fill:#0AA2E5;stroke:#41475D;stroke-width:2;stroke-miterlimit:10;" d="M165.136,432.882"/>
	<path style="fill:#0AA2E5;stroke:#41475D;stroke-width:2;stroke-miterlimit:10;" d="M165.136,397.367"/>
</g>
<line style="fill:none;stroke:#41475D;stroke-width:4;stroke-miterlimit:10;" x1="270" y1="143.009" x2="270" y2="143.009"/>
<line style="fill:none;stroke:#41475D;stroke-width:4;stroke-miterlimit:10;" x1="302" y1="143.009" x2="302" y2="143.009"/>
<path style="fill:#A09575;stroke:#41475D;stroke-width:4;stroke-miterlimit:10;" d="M145.638,333.403L145.638,333.403
	c-33.978,0-61.523-27.545-61.523-61.523v-77.492c0-16.881,13.685-30.567,30.567-30.567h62.184c16.881,0,30.567,13.685,30.567,30.567
	v77.22C207.432,305.737,179.766,333.403,145.638,333.403z"/>
<line style="fill:none;stroke:#41475D;stroke-width:4;stroke-miterlimit:10;" x1="160.957" y1="224.628" x2="160.957" y2="224.628"/>
<line style="fill:none;stroke:#41475D;stroke-width:4;stroke-miterlimit:10;" x1="190.441" y1="224.628" x2="190.441" y2="224.628"/>
<path style="fill:none;stroke:#41475D;stroke-width:2;stroke-miterlimit:10;" d="M137.002,274.837"/>
<path style="fill:none;stroke:#41475D;stroke-width:2;stroke-miterlimit:10;" d="M121.826,301.453
	c2.697,10.603,11.504,17.664,19.689,15.786"/>
<path style="fill:none;stroke:#41475D;stroke-width:3;stroke-miterlimit:10;" d="M157.981,196.864
	c7.474-7.563,20.845-7.159,29.894,0.902"/>
<path style="fill:none;stroke:#41475D;stroke-width:3;stroke-miterlimit:10;" d="M101.091,197.365
	c8.295-8.492,21.392-9.76,29.283-2.834"/>
<g>
	<g>
		<path style="fill:none;stroke:#41475D;stroke-width:2;stroke-miterlimit:10;" d="M152.09,267.777
			c-1.054,0.478-2.132,0.843-3.218,1.068c-1.934,0.414-3.872,0.404-5.617-0.1c-2.736-0.79-4.506-2.643-5.182-5.014"/>
		<path style="fill:none;stroke:#41475D;stroke-width:2;stroke-miterlimit:10;" d="M164.328,263.591
			c-0.578,2.571-2.402,4.6-5.28,5.457c-1.958,0.583-4.149,0.545-6.318,0.002c-1.035-0.255-2.067-0.627-3.066-1.094"/>
		
			<line style="fill:none;stroke:#41475D;stroke-width:2;stroke-miterlimit:10;" x1="163.405" y1="265.628" x2="163.405" y2="265.628"/>
	</g>
	
		<line style="fill:none;stroke:#41475D;stroke-width:2;stroke-miterlimit:10;" x1="156.403" y1="243.612" x2="163.896" y2="264.191"/>
</g>
<g>
	<g>
		<path style="fill:none;stroke:#41475D;stroke-width:3;stroke-miterlimit:10;" d="M166.109,222.138
			c-0.041-4.901,3.954-8.563,8.915-8.601c4.961-0.038,9.018,3.564,9.059,8.464"/>
		<path style="fill:#3C455E;" d="M180.892,217.726c0.021,2.445-2.522,4.446-5.68,4.47c-3.158,0.024-5.734-1.938-5.755-4.383
			c-0.021-2.445,2.522-4.446,5.68-4.47C178.295,213.319,180.871,215.282,180.892,217.726z"/>
	</g>
	
		<ellipse style="fill:#FFFFFF;stroke:#FFFFFF;stroke-width:3;stroke-miterlimit:10;" cx="177.376" cy="217.451" rx="1.513" ry="1.437"/>
</g>
<g>
	<path style="fill:none;stroke:#41475D;stroke-width:3;stroke-miterlimit:10;" d="M106.017,222.138
		c-0.041-4.901,3.954-8.563,8.915-8.601c4.961-0.038,9.018,3.564,9.059,8.464"/>
	<path style="fill:#3C455E;" d="M120.8,217.726c0.021,2.445-2.522,4.446-5.68,4.47c-3.158,0.024-5.734-1.938-5.755-4.383
		s2.522-4.446,5.68-4.47C118.203,213.319,120.779,215.282,120.8,217.726z"/>
	
		<ellipse style="fill:#FFFFFF;stroke:#FFFFFF;stroke-width:3;stroke-miterlimit:10;" cx="117.284" cy="217.451" rx="1.513" ry="1.437"/>
</g>
<path style="fill:#A3ABAF;stroke:#41475D;stroke-width:4;stroke-miterlimit:10;" d="M252.735,515.859H38.573l-20.437-96.202
	c-1.169-5.503,1.138-13.434,7.43-13.499l236.548,0.391c6.557-0.068,11.482,5.31,10.083,11.012L252.735,515.859z"/>
<ellipse style="fill:#48565B;stroke:#41475D;stroke-width:4;stroke-miterlimit:10;" cx="144.907" cy="458.253" rx="11.695" ry="9.637"/>
<path style="fill:#3B4447;" d="M154.75,456.506c0.884,5.568-3.974,10.149-10.523,9.471c-3.212-0.333,2.544-0.184,6.273-3.218
	C154.232,459.724,154.353,454.009,154.75,456.506z"/>
<path style="fill:none;stroke:#C1C5D1;stroke-width:3;stroke-miterlimit:10;" d="M245.322,417.618
	c6.557-0.058,11.482,4.498,10.083,9.327"/>
<g>
	<path style="fill:#29ABE2;stroke:#41475D;stroke-width:3;stroke-miterlimit:10;" d="M113.08,65.268H95.362
		C86.878,65.268,80,58.39,80,49.906V31.314c0-8.484,6.878-15.362,15.362-15.362h17.718c8.484,0,15.362,6.878,15.362,15.362v18.592
		C128.442,58.39,121.564,65.268,113.08,65.268z"/>
	<path style="fill:#29ABE2;stroke:#41475D;stroke-width:3;stroke-miterlimit:10;" d="M94.69,49.559v-7.52V31.721
		c0,0,4.889-0.918,7.345,0.874c1.124,0.82,3.172,2.796,2.186,5.771c-0.743,2.243-2.508,2.973-4.533,3.323
		c-2.025,0.35-3.949,0-3.949,0"/>
	<path style="fill:#29ABE2;stroke:#41475D;stroke-width:3;stroke-miterlimit:10;" d="M107.194,47.285
		c2.17,5.297,10.529-0.857,3.735-4.213c-3.298-1.629-3.213-1.991-3.38-2.505c-0.431-1.328,0.328-3.862,2.251-4.212
		s2.903,0.612,2.903,0.612"/>
</g>
<g>
	<path style="fill:#F7931E;stroke:#41475D;stroke-width:3;stroke-miterlimit:10;" d="M255.853,118.531h-17.158
		c-8.484,0-15.362-6.878-15.362-15.362V85.147c0-8.484,6.878-15.362,15.362-15.362h17.158c8.484,0,15.362,6.878,15.362,15.362
		v18.022C271.215,111.653,264.337,118.531,255.853,118.531z"/>
	<path style="fill:#F7931E;stroke:#41475D;stroke-width:3;stroke-miterlimit:10;" d="M236.298,104.264l6.007-19.755h2.371
		l5.533,19.977l-2.292-6.977h-8.458c-0.991,0-0.991-0.268-0.991-0.268"/>
	<line style="fill:#F7931E;stroke:#41475D;stroke-width:3;stroke-miterlimit:10;" x1="256.5" y1="104.009" x2="256.5" y2="89.009"/>
	
		<ellipse style="fill:#F7931E;stroke:#41475D;stroke-width:3;stroke-miterlimit:10;" cx="257.166" cy="83.864" rx="1.423" ry="1.344"/>
</g>
<g>
	<path style="fill:#FFFF00;stroke:#41475D;stroke-width:2;stroke-miterlimit:10;" d="M33.988,104.516l0.162-0.129
		c1.438-1.146,3.557-0.068,3.479,1.769l-1.735,40.649c-0.026,0.62-0.321,1.199-0.806,1.586h0c-1.435,1.143-3.55,0.073-3.479-1.761
		l1.573-40.52C33.205,105.487,33.5,104.905,33.988,104.516z"/>
	<path style="fill:#FFFF00;stroke:#41475D;stroke-width:2;stroke-miterlimit:10;" d="M47.081,104.772L47.081,104.772
		c-2.118,1.016-2.194,4.005-0.129,5.126l9.397,5.105c1.065,0.579,1.654,1.762,1.473,2.96l-1.741,11.528
		c-0.345,2.286,2.008,4.026,4.092,3.026l0.176-0.084c0.863-0.414,1.464-1.229,1.603-2.176l2.192-14.87
		c0.171-1.162-0.38-2.311-1.393-2.904l-12.968-7.599C48.956,104.4,47.944,104.358,47.081,104.772z"/>
	<path style="fill:#FFFF00;stroke:#41475D;stroke-width:2;stroke-miterlimit:10;" d="M8.698,123.181L8.698,123.181
		c2.118-1.016,4.496,0.796,4.079,3.108l-1.901,10.524c-0.215,1.193,0.339,2.392,1.387,3.001l10.08,5.859
		c1.999,1.162,1.883,4.086-0.202,5.086l-0.176,0.084c-0.863,0.414-1.875,0.372-2.701-0.112l-12.968-7.599
		c-1.013-0.594-1.564-1.743-1.393-2.904l2.192-14.87C7.234,124.41,7.835,123.594,8.698,123.181z"/>
</g>
<g>
	<path style="fill:#7F6DFF;stroke:#41475D;stroke-miterlimit:10;" d="M156.28,28.823l0.058-0.037
		c0.519-0.331,1.187,0.102,1.096,0.712l-2.009,13.478c-0.031,0.206-0.149,0.388-0.324,0.5v0c-0.518,0.33-1.185-0.101-1.097-0.709
		l1.95-13.441C155.985,29.119,156.104,28.936,156.28,28.823z"/>
	<path style="fill:#7F6DFF;stroke:#41475D;stroke-miterlimit:10;" d="M160.632,29.37L160.632,29.37
		c-0.741,0.264-0.872,1.257-0.224,1.703l2.95,2.031c0.334,0.23,0.489,0.645,0.386,1.038l-0.986,3.778
		c-0.195,0.749,0.527,1.412,1.256,1.152l0.061-0.022c0.302-0.107,0.531-0.358,0.611-0.668l1.254-4.876
		c0.098-0.381-0.045-0.783-0.362-1.016l-4.052-2.988C161.27,29.312,160.934,29.262,160.632,29.37z"/>
	<path style="fill:#7F6DFF;stroke:#41475D;stroke-miterlimit:10;" d="M147.2,34.15L147.2,34.15c0.741-0.264,1.47,0.423,1.249,1.179
		l-1.004,3.438c-0.114,0.39,0.029,0.809,0.356,1.048l3.151,2.306c0.625,0.457,0.483,1.427-0.246,1.687l-0.061,0.022
		c-0.302,0.107-0.638,0.058-0.896-0.132l-4.052-2.988c-0.316-0.233-0.46-0.635-0.362-1.016l1.254-4.876
		C146.669,34.508,146.898,34.257,147.2,34.15z"/>
</g>
<g>
	<path style="fill:#00FFFF;stroke:#41475D;stroke-miterlimit:10;" d="M209.905,105.081l0.1,0.027
		c0.889,0.236,1.087,1.408,0.326,1.924l-16.843,11.411c-0.257,0.174-0.577,0.228-0.877,0.148h0
		c-0.887-0.236-1.087-1.404-0.329-1.922l16.743-11.437C209.282,105.056,209.603,105.001,209.905,105.081z"/>
	<path style="fill:#00FFFF;stroke:#41475D;stroke-miterlimit:10;" d="M213.702,110.416L213.702,110.416
		c-1.039-0.548-2.262,0.312-2.098,1.475l0.748,5.295c0.085,0.6-0.215,1.189-0.75,1.473l-5.149,2.734
		c-1.021,0.542-1.019,2.006,0.003,2.545l0.086,0.045c0.423,0.223,0.93,0.222,1.352-0.004l6.625-3.549
		c0.518-0.277,0.815-0.841,0.752-1.424l-0.81-7.472C214.41,111.059,214.125,110.64,213.702,110.416z"/>
	<path style="fill:#00FFFF;stroke:#41475D;stroke-miterlimit:10;" d="M194.876,100.483L194.876,100.483
		c1.039,0.548,1.02,2.043-0.034,2.564l-4.793,2.371c-0.543,0.269-0.86,0.849-0.792,1.451l0.649,5.793
		c0.129,1.149-1.08,1.973-2.103,1.434l-0.086-0.045c-0.423-0.223-0.708-0.642-0.759-1.118l-0.81-7.472
		c-0.063-0.584,0.234-1.147,0.752-1.424l6.625-3.549C193.946,100.262,194.453,100.26,194.876,100.483z"/>
</g>
<path style="fill:none;stroke:#41475D;stroke-width:2;stroke-miterlimit:10;" d="M33.854,84.825L33.854,84.825
	c-1-0.496-2.183-0.473-3.163,0.059l0,0c-2.468,1.342-5.422-0.695-4.999-3.447v0c0.168-1.093-0.219-2.197-1.035-2.953l0,0
	c-2.054-1.904-1.007-5.31,1.773-5.762h0c1.104-0.18,2.047-0.885,2.523-1.885l0,0c1.198-2.519,4.8-2.587,6.094-0.115l0,0
	c0.514,0.982,1.484,1.65,2.594,1.789h0c2.795,0.348,3.973,3.711,1.994,5.691l0,0c-0.786,0.786-1.13,1.905-0.92,2.99l0,0
	C39.245,83.927,36.372,86.073,33.854,84.825z"/>
<path style="fill:none;stroke:#41475D;stroke-width:2;stroke-miterlimit:10;" d="M291,139.149L291,139.149
	c-1-0.496-2.183-0.473-3.163,0.059h0c-2.468,1.342-5.422-0.695-4.999-3.447v0c0.168-1.093-0.219-2.197-1.035-2.953l0,0
	c-2.054-1.904-1.007-5.31,1.773-5.762l0,0c1.104-0.18,2.047-0.885,2.523-1.885v0c1.198-2.519,4.8-2.587,6.094-0.115v0
	c0.514,0.982,1.484,1.65,2.594,1.789l0,0c2.795,0.348,3.973,3.711,1.994,5.691v0c-0.786,0.786-1.13,1.905-0.92,2.99v0
	C296.391,138.25,293.518,140.397,291,139.149z"/>
<path style="fill:none;stroke:#41475D;stroke-width:2;stroke-miterlimit:10;" d="M241.663,150.726L241.663,150.726
	c-1-0.496-2.183-0.473-3.163,0.059l0,0c-2.468,1.342-5.422-0.695-4.999-3.447v0c0.168-1.093-0.219-2.197-1.035-2.953l0,0
	c-2.054-1.904-1.007-5.31,1.773-5.762l0,0c1.104-0.18,2.047-0.885,2.523-1.885h0c1.198-2.519,4.8-2.587,6.094-0.115l0,0
	c0.514,0.982,1.484,1.65,2.594,1.789h0c2.795,0.348,3.973,3.711,1.994,5.691l0,0c-0.786,0.786-1.13,1.905-0.92,2.99v0
	C247.054,149.828,244.181,151.974,241.663,150.726z"/>
<path style="fill:none;stroke:#41475D;stroke-width:2;stroke-miterlimit:10;" d="M31.753,193.853L31.753,193.853
	c-1-0.496-2.183-0.473-3.163,0.059h0c-2.468,1.342-5.422-0.695-4.999-3.447l0,0c0.168-1.093-0.219-2.197-1.035-2.953h0
	c-2.054-1.904-1.007-5.31,1.773-5.762h0c1.104-0.18,2.047-0.885,2.523-1.885h0c1.198-2.519,4.8-2.587,6.094-0.115l0,0
	c0.514,0.982,1.484,1.65,2.594,1.789h0c2.795,0.348,3.973,3.711,1.994,5.691l0,0c-0.786,0.786-1.13,1.905-0.92,2.99v0
	C37.144,192.955,34.271,195.101,31.753,193.853z"/>
<path style="fill:none;stroke:#41475D;stroke-width:2;stroke-miterlimit:10;" d="M165.757,127.107l-5.743-2.847
	c-0.259-0.128-0.566-0.123-0.82,0.015l-5.629,3.061c-0.64,0.348-1.405-0.18-1.296-0.893l0.965-6.276
	c0.044-0.283-0.057-0.57-0.268-0.766l-4.686-4.344c-0.532-0.494-0.261-1.376,0.46-1.494l6.34-1.032
	c0.286-0.047,0.531-0.229,0.654-0.489l2.733-5.745c0.311-0.653,1.244-0.67,1.58-0.03l2.953,5.638
	c0.133,0.254,0.385,0.428,0.672,0.464l6.375,0.793c0.724,0.09,1.03,0.962,0.517,1.475l-4.515,4.517
	c-0.204,0.204-0.293,0.494-0.238,0.775l1.206,6.235C167.154,126.874,166.41,127.43,165.757,127.107z"/>
<path style="fill:none;stroke:#41475D;stroke-width:2;stroke-miterlimit:10;" d="M197.408,28.877l-5.743-2.847
	c-0.259-0.128-0.566-0.123-0.82,0.015l-5.629,3.061c-0.64,0.348-1.405-0.18-1.296-0.893l0.965-6.276
	c0.044-0.283-0.057-0.57-0.268-0.766l-4.686-4.344c-0.533-0.494-0.261-1.376,0.46-1.494l6.34-1.032
	c0.286-0.047,0.531-0.229,0.654-0.489l2.733-5.745c0.311-0.653,1.244-0.67,1.58-0.03l2.953,5.638
	c0.133,0.254,0.385,0.428,0.672,0.464l6.375,0.793c0.724,0.09,1.03,0.962,0.517,1.475l-4.515,4.517
	c-0.204,0.204-0.293,0.494-0.238,0.775l1.206,6.235C198.805,28.644,198.06,29.2,197.408,28.877z"/>
<path style="fill:none;stroke:#41475D;stroke-width:2;stroke-miterlimit:10;" d="M255.774,61.876l-3.909-1.937
	c-0.176-0.087-0.385-0.084-0.558,0.01l-3.831,2.083c-0.435,0.237-0.957-0.123-0.882-0.608l0.657-4.272
	c0.03-0.193-0.039-0.388-0.183-0.521l-3.189-2.956c-0.362-0.336-0.178-0.937,0.313-1.017l4.315-0.703
	c0.195-0.032,0.361-0.156,0.445-0.333l1.86-3.91c0.211-0.444,0.847-0.456,1.075-0.02l2.01,3.837
	c0.091,0.173,0.262,0.291,0.458,0.316l4.339,0.54c0.493,0.061,0.701,0.655,0.352,1.004l-3.073,3.074
	c-0.139,0.139-0.199,0.336-0.162,0.528l0.821,4.244C256.725,61.717,256.218,62.096,255.774,61.876z"/>
<path style="fill:none;stroke:#41475D;stroke-width:2;stroke-miterlimit:10;" d="M160.68,75.1l-4.562-2.261
	c-0.206-0.102-0.449-0.097-0.651,0.012l-4.472,2.431c-0.508,0.276-1.116-0.143-1.029-0.71l0.767-4.986
	c0.035-0.225-0.045-0.452-0.213-0.608l-3.722-3.451c-0.423-0.392-0.207-1.093,0.365-1.187l5.036-0.82
	c0.227-0.037,0.422-0.182,0.52-0.388l2.171-4.564c0.247-0.519,0.988-0.533,1.255-0.024l2.346,4.479
	c0.106,0.202,0.306,0.34,0.534,0.368l5.064,0.63c0.576,0.072,0.818,0.764,0.411,1.172l-3.587,3.588
	c-0.162,0.162-0.233,0.392-0.189,0.616l0.958,4.953C161.79,74.915,161.199,75.357,160.68,75.1z"/>
<ellipse style="fill:#CC9AFF;stroke:#41475D;stroke-width:2;stroke-miterlimit:10;" cx="83.279" cy="94.602" rx="3.102" ry="3.225"/>
<ellipse style="fill:#CC9AFF;stroke:#41475D;stroke-width:2;stroke-miterlimit:10;" cx="270.279" cy="40.602" rx="3.102" ry="3.225"/>
<ellipse style="fill:#FFFF00;stroke:#41475D;stroke-width:2;stroke-miterlimit:10;" cx="108.91" cy="112.234" rx="4.629" ry="4.812"/>
<ellipse style="fill:#FFFF00;stroke:#41475D;stroke-width:2;stroke-miterlimit:10;" cx="239.91" cy="29.234" rx="4.629" ry="4.812"/>
<ellipse style="fill:#29ABE2;stroke:#41475D;stroke-width:2;stroke-miterlimit:10;" cx="118.91" cy="88.234" rx="4.629" ry="4.812"/>
<ellipse style="fill:#29ABE2;stroke:#41475D;stroke-width:2;stroke-miterlimit:10;" cx="229.91" cy="176.234" rx="4.629" ry="4.812"/>
<ellipse style="fill:#FBB03B;stroke:#41475D;stroke-width:2;stroke-miterlimit:10;" cx="103.298" cy="136.622" rx="4.992" ry="5.19"/>
<ellipse style="fill:#FBB03B;stroke:#41475D;stroke-width:2;stroke-miterlimit:10;" cx="280.298" cy="52.622" rx="4.992" ry="5.19"/>
<g>
	<path style="fill:none;stroke:#41475D;stroke-width:2;stroke-miterlimit:10;" d="M249.245,183.262
		c0.282,0.64,0.092,1.339-0.425,1.562c-0.517,0.223-1.165-0.115-1.448-0.755c-0.282-0.64-0.092-1.339,0.425-1.562
		C248.314,182.284,248.963,182.622,249.245,183.262z"/>
	
		<line style="fill:none;stroke:#41475D;stroke-width:2;stroke-miterlimit:10;" x1="244.333" y1="175.44" x2="246.155" y2="179.568"/>
	
		<line style="fill:none;stroke:#41475D;stroke-width:2;stroke-miterlimit:10;" x1="251.558" y1="182.154" x2="256.333" y2="180.097"/>
	
		<line style="fill:none;stroke:#41475D;stroke-width:2;stroke-miterlimit:10;" x1="249.538" y1="187.235" x2="251.62" y2="191.953"/>
	
		<line style="fill:none;stroke:#41475D;stroke-width:2;stroke-miterlimit:10;" x1="244.992" y1="184.982" x2="240.217" y2="187.039"/>
</g>
<g>
	<path style="fill:none;stroke:#41475D;stroke-width:2;stroke-miterlimit:10;" d="M61.71,163.388
		c0.282,0.64,0.092,1.339-0.425,1.562c-0.517,0.223-1.165-0.115-1.448-0.755s-0.092-1.339,0.425-1.562
		C60.779,162.41,61.428,162.748,61.71,163.388z"/>
	<line style="fill:none;stroke:#41475D;stroke-width:2;stroke-miterlimit:10;" x1="56.798" y1="155.566" x2="58.62" y2="159.694"/>
	<line style="fill:none;stroke:#41475D;stroke-width:2;stroke-miterlimit:10;" x1="64.023" y1="162.279" x2="68.798" y2="160.222"/>
	<line style="fill:none;stroke:#41475D;stroke-width:2;stroke-miterlimit:10;" x1="62.003" y1="167.361" x2="64.085" y2="172.079"/>
	<line style="fill:none;stroke:#41475D;stroke-width:2;stroke-miterlimit:10;" x1="57.457" y1="165.108" x2="52.682" y2="167.165"/>
</g>
<path style="fill:#FFFFFF;stroke:#41475D;stroke-width:4;stroke-miterlimit:10;" d="M155,417.009"/>
<line style="fill:#CFDEE5;stroke:#C1C5D1;stroke-width:3;stroke-miterlimit:10;" x1="207.998" y1="417.194" x2="237.142" y2="417.303"/>
<line style="fill:#CFDEE5;stroke:#C1C5D1;stroke-width:3;stroke-miterlimit:10;" x1="182.997" y1="417.195" x2="202.014" y2="417.302"/>
<path style="fill:#847863;" d="M145.077,330.886h1.328c-18.386,0,9.47-2.915,31.334-19.521
	c18.543-14.083,27.694-42.274,27.694-42.274C205.434,303.22,179.205,330.886,145.077,330.886z"/>
<path style="fill:#FFFFFF;stroke:#41475D;stroke-width:2;stroke-miterlimit:10;" d="M165.073,298.523
	c-4.509,9.081-14.298,14.187-23.937,11.599c-9.301-2.497-15.478-11.342-14.972-20.939c4.887,4.936,10.126,8.486,17.118,10.364
	C150.96,301.609,159.171,301.225,165.073,298.523z"/>
<path style="fill:none;stroke:#41475D;stroke-width:2;stroke-miterlimit:10;" d="M135.334,282.695
	c7.158,8.274,18.194,10.645,24.673,5.302"/>
<g>
	<g>
		<path style="fill:none;stroke:#41475D;stroke-width:4;stroke-miterlimit:10;" d="M108.202,169.909
			c0.498,3.317-2.885,6.436-7.556,6.965s-8.861-1.731-9.359-5.048c-0.498-3.317,2.885-6.436,7.556-6.965
			C103.514,164.331,107.704,166.591,108.202,169.909z"/>
		<path style="fill:none;stroke:#41475D;stroke-width:4;stroke-miterlimit:10;" d="M110.418,175.588
			c1.449-0.427,2.718-1.126,3.711-2.004c1.672-1.491,2.575-3.495,2.262-5.577c-0.277-1.849-1.449-3.418-3.139-4.497
			c-0.224-0.14-0.456-0.272-0.697-0.396c-1.744-0.901-3.908-1.32-6.179-1.064c-2.459,0.28-4.578,1.305-6.009,2.742
			c-1.44,1.445-2.191,3.309-1.905,5.243c0.42,2.765,2.844,4.917,6.009,5.701"/>
		<path style="fill:none;stroke:#41475D;stroke-width:4;stroke-miterlimit:10;" d="M116.293,174.4
			c2.54-1.305,4.078-3.526,3.729-5.833c-0.411-2.68-3.219-4.676-6.76-5.049c0,0,0-0.008-0.009-0.008
			c-0.34-0.039-0.697-0.062-1.055-0.062c-0.501-0.016-1.019-0.439-1.538-0.377c-2.298,0.264-4.283,1.938-5.642,1.938h-0.009
			c-1.404,2-2.146,3.102-1.896,4.787c0.25,1.678,1.449,3.213,3.183,4.213c0,0,0,0,0.009,0c1.171,1,2.584,1.252,4.113,1.337"/>
		<path style="fill:none;stroke:#41475D;stroke-width:4;stroke-miterlimit:10;" d="M112.556,163.114
			c-0.125,0.101-0.241,0.217-0.358,0.334c-1.449,1.445-2.2,3.317-1.914,5.251c0.313,2.089,1.779,3.829,3.845,4.886
			c0.662,0.35,1.395,0.629,2.164,0.816"/>
	</g>
	<g>
		<path style="fill:none;stroke:#41475D;stroke-width:4;stroke-miterlimit:10;" d="M130.756,164.018
			c0.663,4.413-3.838,8.562-10.052,9.266c-6.214,0.704-11.789-2.303-12.451-6.716s3.838-8.562,10.052-9.266
			C124.518,156.598,130.093,159.605,130.756,164.018z"/>
		<path style="fill:none;stroke:#41475D;stroke-width:4;stroke-miterlimit:10;" d="M141.647,161.484
			c0.769,5.119-3.946,9.874-10.531,10.62c-6.585,0.746-12.546-2.799-13.315-7.918c-0.769-5.119,3.946-9.874,10.531-10.62
			C134.917,152.819,140.878,156.365,141.647,161.484z"/>
		<path style="fill:none;stroke:#41475D;stroke-width:4;stroke-miterlimit:10;" d="M146.482,162.236
			c0.663,4.413-3.838,8.562-10.052,9.266s-11.789-2.303-12.451-6.716c-0.663-4.413,3.838-8.562,10.052-9.266
			C140.245,154.816,145.819,157.823,146.482,162.236z"/>
		<path style="fill:none;stroke:#41475D;stroke-width:4;stroke-miterlimit:10;" d="M157.373,159.702
			c0.769,5.119-3.946,9.874-10.531,10.62c-6.585,0.746-12.546-2.799-13.315-7.918c-0.769-5.119,3.946-9.874,10.531-10.62
			C150.643,151.038,156.605,154.583,157.373,159.702z"/>
	</g>
	<g>
		<path style="fill:none;stroke:#41475D;stroke-width:4;stroke-miterlimit:10;" d="M151.939,160.588
			c-0.24,4.446-5.509,7.843-11.769,7.588c-6.26-0.255-11.14-4.066-10.9-8.511c0.24-4.446,5.509-7.843,11.769-7.588
			S152.179,156.143,151.939,160.588z"/>
		<path style="fill:none;stroke:#41475D;stroke-width:4;stroke-miterlimit:10;" d="M163.173,159.755
			c-0.278,5.157-5.882,9.118-12.515,8.848c-6.633-0.27-11.785-4.67-11.507-9.827c0.278-5.157,5.882-9.118,12.515-8.848
			C158.3,150.199,163.452,154.598,163.173,159.755z"/>
		<path style="fill:none;stroke:#41475D;stroke-width:4;stroke-miterlimit:10;" d="M167.781,161.234
			c-0.24,4.446-5.509,7.843-11.769,7.588c-6.26-0.255-11.14-4.066-10.9-8.511c0.24-4.446,5.509-7.843,11.769-7.588
			C163.141,152.977,168.021,156.788,167.781,161.234z"/>
		<path style="fill:none;stroke:#41475D;stroke-width:4;stroke-miterlimit:10;" d="M179.015,160.401
			c-0.278,5.157-5.882,9.118-12.515,8.848s-11.785-4.67-11.507-9.827c0.278-5.157,5.882-9.118,12.515-8.848
			C174.142,150.844,179.294,155.244,179.015,160.401z"/>
	</g>
	<g>
		<path style="fill:none;stroke:#41475D;stroke-width:4;stroke-miterlimit:10;" d="M175.899,168.048
			c-1.012,4.363-6.813,7.028-12.956,5.952c-6.143-1.075-10.303-5.484-9.29-9.847c1.012-4.363,6.813-7.028,12.956-5.952
			C172.751,159.276,176.911,163.685,175.899,168.048z"/>
		<path style="fill:none;stroke:#41475D;stroke-width:4;stroke-miterlimit:10;" d="M187.149,168.702
			c-1.174,5.061-7.403,8.24-13.913,7.1c-6.51-1.14-10.835-6.166-9.661-11.227c1.174-5.061,7.403-8.24,13.913-7.1
			C183.998,158.614,188.323,163.641,187.149,168.702z"/>
		<path style="fill:none;stroke:#41475D;stroke-width:4;stroke-miterlimit:10;" d="M191.446,170.769
			c-1.012,4.363-6.813,7.028-12.956,5.952c-6.143-1.075-10.303-5.484-9.29-9.847c1.012-4.363,6.813-7.028,12.956-5.952
			C188.298,161.998,192.458,166.406,191.446,170.769z"/>
		<path style="fill:none;stroke:#41475D;stroke-width:4;stroke-miterlimit:10;" d="M202.696,171.423
			c-1.174,5.061-7.403,8.24-13.913,7.1c-6.51-1.14-10.835-6.166-9.661-11.227c1.174-5.061,7.403-8.24,13.913-7.1
			C199.544,161.336,203.87,166.362,202.696,171.423z"/>
	</g>
	<g>
		<path style="fill:none;stroke:#41475D;stroke-width:4;stroke-miterlimit:10;" d="M186.844,168.087
			c-1.061,3.084-5.819,4.573-10.627,3.325s-7.846-4.76-6.785-7.845s5.819-4.573,10.627-3.325
			C184.868,161.49,187.906,165.002,186.844,168.087z"/>
		<path style="fill:none;stroke:#41475D;stroke-width:4;stroke-miterlimit:10;" d="M195.728,169.419
			c-1.231,3.578-6.359,5.406-11.454,4.083s-8.228-5.295-6.997-8.873c1.231-3.578,6.359-5.406,11.454-4.083
			S196.959,165.841,195.728,169.419z"/>
		<path style="fill:none;stroke:#41475D;stroke-width:4;stroke-miterlimit:10;" d="M199.013,171.246
			c-1.061,3.084-5.819,4.573-10.627,3.325c-4.808-1.248-7.846-4.76-6.785-7.845c1.061-3.084,5.819-4.573,10.627-3.325
			C197.036,164.649,200.074,168.161,199.013,171.246z"/>
		<path style="fill:none;stroke:#41475D;stroke-width:4;stroke-miterlimit:10;" d="M207.896,172.578
			c-1.231,3.578-6.359,5.406-11.454,4.083s-8.228-5.295-6.997-8.873c1.231-3.578,6.359-5.406,11.454-4.083
			C205.995,165.028,209.127,169,207.896,172.578z"/>
	</g>
	<g>
		<path style="fill:none;stroke:#41475D;stroke-width:4;stroke-miterlimit:10;" d="M102.837,170.686
			c0.498,3.317-2.885,6.436-7.556,6.965s-8.861-1.731-9.359-5.048s2.885-6.436,7.556-6.965S102.339,167.368,102.837,170.686z"/>
		<path style="fill:none;stroke:#41475D;stroke-width:4;stroke-miterlimit:10;" d="M105.053,176.365
			c1.449-0.427,2.718-1.126,3.711-2.004c1.672-1.491,2.575-3.495,2.262-5.577c-0.277-1.849-1.449-3.418-3.139-4.497
			c-0.224-0.14-0.456-0.272-0.697-0.396c-1.744-0.901-3.908-1.32-6.179-1.064c-2.459,0.28-4.578,1.305-6.009,2.742
			c-1.44,1.445-2.191,3.309-1.905,5.243c0.42,2.765,2.844,4.917,6.009,5.701"/>
		<path style="fill:none;stroke:#41475D;stroke-width:4;stroke-miterlimit:10;" d="M110.928,175.177
			c2.54-1.305,4.078-3.526,3.729-5.833c-0.411-2.68-3.219-4.676-6.76-5.049c0,0,0-0.008-0.009-0.008
			c-0.34-0.039-0.697-0.062-1.055-0.062c-0.501-0.016-1.019-0.327-1.538-0.265c-2.298,0.264-4.283,1.05-5.642,2.05h-0.009
			c-1.404,2-2.146,3.102-1.896,4.787c0.25,1.678,1.449,3.213,3.183,4.213c0,0,0,0,0.009,0c1.171,1,2.584,1.14,4.113,1.226"/>
		<path style="fill:none;stroke:#41475D;stroke-width:4;stroke-miterlimit:10;" d="M107.19,163.89
			c-0.125,0.101-0.241,0.217-0.358,0.334c-1.449,1.445-2.2,3.317-1.914,5.251c0.313,2.089,1.779,3.829,3.845,4.886
			c0.662,0.35,1.395,0.629,2.164,0.816"/>
	</g>
	<g>
		<path style="fill:none;stroke:#41475D;stroke-width:4;stroke-miterlimit:10;" d="M125.39,164.795
			c0.663,4.413-3.838,8.562-10.052,9.266c-6.214,0.704-11.789-2.303-12.451-6.716c-0.663-4.413,3.838-8.562,10.052-9.266
			C119.153,157.375,124.728,160.382,125.39,164.795z"/>
		<path style="fill:none;stroke:#41475D;stroke-width:4;stroke-miterlimit:10;" d="M136.282,162.261
			c0.769,5.119-3.946,9.874-10.531,10.62c-6.585,0.746-12.546-2.799-13.315-7.918s3.946-9.874,10.531-10.62
			C129.552,153.596,135.513,157.141,136.282,162.261z"/>
		<path style="fill:none;stroke:#41475D;stroke-width:4;stroke-miterlimit:10;" d="M141.117,163.013
			c0.663,4.413-3.838,8.562-10.052,9.266c-6.214,0.704-11.789-2.303-12.451-6.716c-0.663-4.413,3.838-8.562,10.052-9.266
			S140.454,158.6,141.117,163.013z"/>
		<path style="fill:none;stroke:#41475D;stroke-width:4;stroke-miterlimit:10;" d="M152.008,160.479
			c0.769,5.119-3.946,9.874-10.531,10.62s-12.546-2.799-13.315-7.918c-0.769-5.119,3.946-9.874,10.531-10.62
			S151.24,155.36,152.008,160.479z"/>
	</g>
	<g>
		<path style="fill:none;stroke:#41475D;stroke-width:4;stroke-miterlimit:10;" d="M146.574,161.365
			c-0.24,4.446-5.509,7.843-11.769,7.588c-6.26-0.255-11.14-4.066-10.9-8.511s5.509-7.843,11.769-7.588
			C141.934,153.109,146.814,156.919,146.574,161.365z"/>
		<path style="fill:none;stroke:#41475D;stroke-width:4;stroke-miterlimit:10;" d="M157.808,160.532
			c-0.278,5.157-5.882,9.118-12.515,8.848c-6.633-0.27-11.785-4.67-11.507-9.827c0.278-5.157,5.882-9.118,12.515-8.848
			C152.935,150.975,158.087,155.375,157.808,160.532z"/>
		<path style="fill:none;stroke:#41475D;stroke-width:4;stroke-miterlimit:10;" d="M162.416,162.01
			c-0.24,4.446-5.509,7.843-11.769,7.588c-6.26-0.255-11.14-4.066-10.9-8.511c0.24-4.446,5.509-7.843,11.769-7.588
			C157.776,153.754,162.656,157.565,162.416,162.01z"/>
		<path style="fill:none;stroke:#41475D;stroke-width:4;stroke-miterlimit:10;" d="M173.65,161.177
			c-0.278,5.157-5.882,9.118-12.515,8.848c-6.633-0.27-11.785-4.67-11.507-9.827c0.278-5.157,5.882-9.118,12.515-8.848
			C168.777,151.621,173.929,156.02,173.65,161.177z"/>
	</g>
	<g>
		<path style="fill:none;stroke:#41475D;stroke-width:4;stroke-miterlimit:10;" d="M170.534,168.824
			c-1.012,4.363-6.813,7.028-12.956,5.952c-6.143-1.075-10.303-5.484-9.29-9.847c1.012-4.363,6.813-7.028,12.956-5.952
			C167.386,160.053,171.546,164.461,170.534,168.824z"/>
		<path style="fill:none;stroke:#41475D;stroke-width:4;stroke-miterlimit:10;" d="M181.784,169.478
			c-1.174,5.061-7.403,8.24-13.913,7.1c-6.51-1.14-10.835-6.166-9.661-11.227s7.403-8.24,13.913-7.1
			C178.632,159.391,182.958,164.418,181.784,169.478z"/>
		<path style="fill:none;stroke:#41475D;stroke-width:4;stroke-miterlimit:10;" d="M186.08,171.546
			c-1.012,4.363-6.813,7.028-12.956,5.952c-6.143-1.075-10.303-5.484-9.29-9.847s6.813-7.028,12.956-5.952
			C182.933,162.774,187.093,167.183,186.08,171.546z"/>
		<path style="fill:none;stroke:#41475D;stroke-width:4;stroke-miterlimit:10;" d="M197.331,172.2
			c-1.174,5.061-7.403,8.24-13.913,7.1s-10.835-6.166-9.661-11.227s7.403-8.24,13.913-7.1S198.505,167.139,197.331,172.2z"/>
	</g>
	<g>
		<path style="fill:none;stroke:#41475D;stroke-width:4;stroke-miterlimit:10;" d="M181.479,168.863
			c-1.061,3.084-5.819,4.573-10.627,3.325c-4.808-1.248-7.846-4.76-6.785-7.845c1.061-3.084,5.819-4.573,10.627-3.325
			C179.503,162.267,182.54,165.779,181.479,168.863z"/>
		<path style="fill:none;stroke:#41475D;stroke-width:4;stroke-miterlimit:10;" d="M190.363,170.196
			c-1.231,3.578-6.359,5.406-11.454,4.083s-8.228-5.295-6.997-8.873s6.359-5.406,11.454-4.083
			C188.461,162.646,191.594,166.618,190.363,170.196z"/>
		<path style="fill:none;stroke:#41475D;stroke-width:4;stroke-miterlimit:10;" d="M193.648,172.022
			c-1.061,3.084-5.819,4.573-10.627,3.325c-4.808-1.248-7.846-4.76-6.785-7.845c1.061-3.084,5.819-4.573,10.627-3.325
			C191.671,165.426,194.709,168.938,193.648,172.022z"/>
		<path style="fill:none;stroke:#41475D;stroke-width:4;stroke-miterlimit:10;" d="M202.531,173.355
			c-1.231,3.578-6.359,5.406-11.454,4.083s-8.228-5.295-6.997-8.873s6.359-5.406,11.454-4.083
			C200.629,165.804,203.762,169.777,202.531,173.355z"/>
	</g>
</g>
<line style="fill:#FFF7A9;stroke:#F9F495;stroke-width:3;stroke-miterlimit:10;" x1="63.246" y1="398.009" x2="78" y2="390.342"/>
<g>
	<linearGradient id="SVGID_1_" gradientUnits="userSpaceOnUse" x1="90.939" y1="217.4513" x2="137.1684" y2="217.4513">
		<stop  offset="0" style="stop-color:#FFFFFF"/>
		<stop  offset="0.0357" style="stop-color:#F7F7F7;stop-opacity:0.1"/>
		<stop  offset="1" style="stop-color:#2B2B2B;stop-opacity:0.3"/>
		<stop  offset="1" style="stop-color:#000000"/>
	</linearGradient>
	<path style="fill:url(#SVGID_1_);stroke:#41475D;stroke-width:3;stroke-miterlimit:10;" d="M128.595,229.659H99.573
		c-4.715,0-8.573-3.858-8.573-8.573v-7.27c0-4.715-0.857-8.573,3.858-8.573l34.652,3.266c4.715,0,7.659,0.592,7.659,5.307v7.27
		C137.168,225.801,133.31,229.659,128.595,229.659z"/>
	<linearGradient id="SVGID_2_" gradientUnits="userSpaceOnUse" x1="153.7088" y1="217.4513" x2="199.9382" y2="217.4513">
		<stop  offset="0" style="stop-color:#FFFFFF"/>
		<stop  offset="0.0357" style="stop-color:#F7F7F7;stop-opacity:0.1"/>
		<stop  offset="1" style="stop-color:#000000;stop-opacity:0.3"/>
		<stop  offset="1" style="stop-color:#2B2B2B;stop-opacity:0.3"/>
	</linearGradient>
	<path style="fill:url(#SVGID_2_);stroke:#41475D;stroke-width:3;stroke-miterlimit:10;" d="M162.282,229.659h29.022
		c4.715,0,8.573-3.858,8.573-8.573v-7.27c0-4.715,0.857-8.573-3.858-8.573l-34.652,3.266c-4.715,0-7.659,0.592-7.659,5.307v7.27
		C153.709,225.801,157.567,229.659,162.282,229.659z"/>
	<line style="fill:none;stroke:#41475D;stroke-width:3;stroke-miterlimit:10;" x1="137" y1="213.509" x2="154" y2="213.509"/>
	<line style="fill:none;stroke:#41475D;stroke-width:3;stroke-miterlimit:10;" x1="91.034" y1="208.474" x2="83.481" y2="199.294"/>
	<line style="fill:none;stroke:#41475D;stroke-width:3;stroke-miterlimit:10;" x1="199" y1="208.474" x2="206.799" y2="199.294"/>
</g>
<line style="fill:#FFF7A9;stroke:#F9F495;stroke-width:3;stroke-miterlimit:10;" x1="85.887" y1="387.009" x2="111.333" y2="374.342"/>
<g>
	
		<ellipse style="fill:#FFFFFF;stroke:#41475D;stroke-width:2;stroke-miterlimit:10;" cx="191.137" cy="60.424" rx="14.61" ry="13.995"/>
	<ellipse style="fill:none;stroke:#41475D;stroke-width:2;stroke-miterlimit:10;" cx="191.137" cy="60.523" rx="9.572" ry="9.169"/>
	
		<ellipse style="fill:#41475D;stroke:#FFFFFF;stroke-width:2;stroke-miterlimit:10;" cx="177.418" cy="53.55" rx="4.418" ry="4.522"/>
	
		<ellipse style="fill:#41475D;stroke:#FFFFFF;stroke-width:2;stroke-miterlimit:10;" cx="204.12" cy="52.455" rx="4.418" ry="4.522"/>
	
		<ellipse style="fill:#41475D;stroke:#FFFFFF;stroke-width:2;stroke-miterlimit:10;" cx="190.517" cy="76.534" rx="4.418" ry="4.522"/>
	<line style="fill:none;stroke:#FFFFFF;stroke-width:2;stroke-miterlimit:10;" x1="174.26" y1="65.992" x2="190.255" y2="60.424"/>
	<line style="fill:none;stroke:#FFFFFF;stroke-width:2;stroke-miterlimit:10;" x1="190" y1="44.009" x2="190" y2="61.009"/>
	<line style="fill:none;stroke:#FFFFFF;stroke-width:2;stroke-miterlimit:10;" x1="190.381" y1="60.656" x2="205.748" y2="68.318"/>
</g>
<g>
	
		<ellipse style="fill:#FFFFFF;stroke:#41475D;stroke-width:2;stroke-miterlimit:10;" cx="42.259" cy="214.009" rx="10.681" ry="10.231"/>
	<ellipse style="fill:none;stroke:#41475D;stroke-width:2;stroke-miterlimit:10;" cx="42.259" cy="214.082" rx="6.998" ry="6.703"/>
	
		<ellipse style="fill:#41475D;stroke:#FFFFFF;stroke-width:2;stroke-miterlimit:10;" cx="32.23" cy="208.984" rx="3.23" ry="3.306"/>
	
		<ellipse style="fill:#41475D;stroke:#FFFFFF;stroke-width:2;stroke-miterlimit:10;" cx="51.75" cy="208.184" rx="3.23" ry="3.306"/>
	
		<ellipse style="fill:#41475D;stroke:#FFFFFF;stroke-width:2;stroke-miterlimit:10;" cx="41.806" cy="225.787" rx="3.23" ry="3.306"/>
	<line style="fill:none;stroke:#FFFFFF;stroke-width:2;stroke-miterlimit:10;" x1="29.921" y1="218.08" x2="41.615" y2="214.009"/>
	<line style="fill:none;stroke:#FFFFFF;stroke-width:2;stroke-miterlimit:10;" x1="41" y1="202.009" x2="41" y2="214.009"/>
	<line style="fill:none;stroke:#FFFFFF;stroke-width:2;stroke-miterlimit:10;" x1="41.707" y1="214.179" x2="52.94" y2="219.78"/>
</g>
<g>
	<polygon style="fill:#C1272D;stroke:#41475D;stroke-width:2;stroke-miterlimit:10;" points="52.682,63.101 49.815,63.523 
		45.381,48.355 52.097,45.879 	"/>
	
		<ellipse transform="matrix(0.9893 -0.1458 0.1458 0.9893 -9.403 8.2925)" style="fill:#C1272D;stroke:#41475D;stroke-width:2;stroke-miterlimit:10;" cx="51.859" cy="68.281" rx="3.14" ry="2.755"/>
</g>
<g>
	<polygon style="fill:#009245;stroke:#41475D;stroke-width:2;stroke-miterlimit:10;" points="275.176,174.673 271.251,173.16 
		276.477,150.828 286.731,152.494 	"/>
	
		<ellipse transform="matrix(0.9331 0.3597 -0.3597 0.9331 83.0675 -85.1817)" style="fill:#009245;stroke:#41475D;stroke-width:2;stroke-miterlimit:10;" cx="270.437" cy="180.631" rx="4.558" ry="3.998"/>
</g>
</svg>
