<?xml version="1.0" encoding="iso-8859-1"?>
<!-- Generator: Adobe Illustrator 18.0.0, SVG Export Plug-In . SVG Version: 6.00 Build 0)  -->
<!DOCTYPE svg PUBLIC "-//W3C//DTD SVG 1.1//EN" "http://www.w3.org/Graphics/SVG/1.1/DTD/svg11.dtd">
<svg version="1.1" id="Camada_1" xmlns="http://www.w3.org/2000/svg" xmlns:xlink="http://www.w3.org/1999/xlink" x="0px" y="0px"
	 viewBox="0 0 151.5 111.5" style="enable-background:new 0 0 151.5 111.5;" xml:space="preserve">
<g>
	<g style="opacity:0.12;">
		<path style="fill:#030104;" d="M138.074,90.232H19.728c-5.888,0-10.661-4.773-10.661-10.661V17.405
			c0-5.888,4.773-10.661,10.661-10.661h118.345c5.888,0,10.661,4.773,10.661,10.661v62.167
			C148.734,85.459,143.962,90.232,138.074,90.232z"/>
		<path style="fill:#030104;" d="M138.074,89.107c-23.362,0-46.725,0-70.087,0c-13.465,0-26.93,0-40.395,0c-2.588,0-5.176,0-7.764,0
			c-8.366,0-9.635-7.386-9.635-13.779c0-14.608,0-29.215,0-43.823c0-4.591,0-9.181,0-13.772c0-6.939,5.609-9.864,11.617-9.864
			c27.123,0,54.245,0,81.368,0c10.114,0,20.229,0,30.343,0c1.518,0,3.035,0,4.553,0c8.309,0,9.536,7.453,9.536,13.779
			c0,12.518,0,25.035,0,37.553c0,5.376,0,10.751,0,16.127C147.609,81.874,146.356,88.593,138.074,89.107
			c-1.441,0.09-1.45,2.34,0,2.25c14.605-0.907,11.786-17.444,11.786-27.61c0-14.368,0-28.736,0-43.104
			c0-4.881-0.43-10.083-5.127-12.96c-3.275-2.006-6.42-2.064-10.044-2.064c-11.744,0-23.488,0-35.232,0c-26.216,0-52.432,0-78.649,0
			c-5.087,0-10.434,2.394-12.106,7.634C7.482,17.07,7.943,21.37,7.943,25.327c0,14.967,0,29.934,0,44.901
			c0,3.502-0.532,7.502,0.123,10.981c1.169,6.207,6.08,10.149,12.358,10.149c9.604,0,19.207,0,28.811,0c28.231,0,56.461,0,84.692,0
			c1.382,0,2.764,0,4.146,0C139.525,91.357,139.525,89.107,138.074,89.107z"/>
	</g>
	<g>
		<path style="fill:#E8F1EB;" d="M132.074,87.232H13.728c-5.888,0-10.661-4.773-10.661-10.661V14.405
			c0-5.888,4.773-10.661,10.661-10.661h118.345c5.888,0,10.661,4.773,10.661,10.661v62.167
			C142.734,82.459,137.962,87.232,132.074,87.232z"/>
		<g>
			<path style="fill:#37404B;" d="M132.074,86.107c-23.362,0-46.725,0-70.087,0c-13.465,0-26.93,0-40.395,0
				c-2.588,0-5.176,0-7.764,0c-8.366,0-9.635-7.386-9.635-13.779c0-14.608,0-29.215,0-43.823c0-4.591,0-9.181,0-13.772
				c0-6.939,5.609-9.864,11.617-9.864c27.123,0,54.245,0,81.368,0c10.114,0,20.229,0,30.343,0c1.518,0,3.035,0,4.553,0
				c8.309,0,9.536,7.453,9.536,13.779c0,12.518,0,25.035,0,37.553c0,5.376,0,10.751,0,16.127
				C141.609,78.874,140.356,85.593,132.074,86.107c-1.441,0.09-1.45,2.34,0,2.25c14.605-0.907,11.786-17.444,11.786-27.61
				c0-14.368,0-28.736,0-43.104c0-4.881-0.43-10.083-5.127-12.96c-3.275-2.006-6.42-2.064-10.044-2.064c-11.744,0-23.488,0-35.232,0
				c-26.216,0-52.432,0-78.649,0c-5.087,0-10.434,2.394-12.106,7.634C1.482,14.07,1.943,18.37,1.943,22.327
				c0,14.967,0,29.934,0,44.901c0,3.502-0.532,7.502,0.123,10.981c1.169,6.207,6.08,10.149,12.358,10.149c9.604,0,19.207,0,28.811,0
				c28.231,0,56.461,0,84.692,0c1.382,0,2.764,0,4.146,0C133.525,88.357,133.525,86.107,132.074,86.107z"/>
		</g>
	</g>
</g>
<rect x="4.401" y="13.078" style="fill:#BFDBD9;stroke:#37404B;stroke-width:0.75;stroke-miterlimit:10;" width="137" height="55.25"/>
<circle style="fill:#D1D2D2;stroke:#37404B;stroke-width:0.75;stroke-miterlimit:10;" cx="73.318" cy="77.494" r="3.25"/>
<g>
	<g style="opacity:0.12;">
		<polygon style="fill:#030104;" points="92.193,109.578 66.443,109.578 73.984,90.232 84.734,90.232 		"/>
		<path style="fill:#030104;" d="M92.193,108.453c-8.583,0-17.167,0-25.75,0c0.362,0.475,0.723,0.949,1.085,1.424
			c1.606-4.12,3.213-8.241,4.819-12.361c0.845-2.169,1.691-4.337,2.536-6.506c0.369-0.947-1.654,0.348-0.012,0.348
			c1.338,0,2.677,0,4.015,0c1.448,0,2.896,0,4.343,0c1.978,0,0.767,0.073,0.504-0.609c0.759,1.968,1.517,3.936,2.276,5.904
			c1.699,4.408,3.399,8.816,5.098,13.224c0.516,1.339,2.692,0.758,2.17-0.598c-2.486-6.448-4.972-12.897-7.458-19.345
			c-0.183-0.474-0.546-0.826-1.085-0.826c-3.583,0-7.167,0-10.75,0c-0.54,0-0.9,0.352-1.085,0.826
			c-2.514,6.448-5.028,12.897-7.542,19.345c-0.271,0.694,0.411,1.424,1.085,1.424c8.583,0,17.167,0,25.75,0
			C93.644,110.703,93.644,108.453,92.193,108.453z"/>
	</g>
	<g>
		<polygon style="fill:#E8F1EB;" points="86.193,106.578 60.443,106.578 67.984,87.232 78.734,87.232 		"/>
		<g>
			<path style="fill:#37404B;" d="M86.193,105.453c-8.583,0-17.167,0-25.75,0c0.362,0.475,0.723,0.949,1.085,1.424
				c1.606-4.12,3.213-8.241,4.819-12.361c0.845-2.169,1.691-4.337,2.536-6.506c0.369-0.947-1.654,0.348-0.012,0.348
				c1.338,0,2.677,0,4.015,0c1.448,0,2.896,0,4.343,0c1.978,0,0.767,0.073,0.504-0.609c0.759,1.968,1.517,3.936,2.276,5.904
				c1.699,4.408,3.399,8.816,5.098,13.224c0.516,1.339,2.692,0.758,2.17-0.598c-2.486-6.448-4.972-12.897-7.458-19.345
				c-0.183-0.474-0.546-0.826-1.085-0.826c-3.583,0-7.167,0-10.75,0c-0.54,0-0.9,0.352-1.085,0.826
				c-2.514,6.448-5.028,12.897-7.542,19.345c-0.271,0.694,0.411,1.424,1.085,1.424c8.583,0,17.167,0,25.75,0
				C87.644,107.703,87.644,105.453,86.193,105.453z"/>
		</g>
	</g>
</g>
<rect x="23.026" y="21.369" style="fill:#535164;stroke:#37404B;stroke-width:0.75;stroke-miterlimit:10;" width="84.979" height="41.917"/>
<g>
	<g style="opacity:0.12;">
		
			<rect x="18.146" y="97.058" style="fill:#030104;stroke:#030104;stroke-width:0.5;stroke-miterlimit:10;" width="2.599" height="2.827"/>
		<path style="fill:#030104;stroke:#030104;stroke-width:0.5;stroke-miterlimit:10;" d="M19.446,97.058L19.446,97.058
			c-2.192,0-3.968-1.777-3.968-3.968v-4.44c0-2.192,1.777-3.968,3.968-3.968h0c2.192,0,3.968,1.777,3.968,3.968v4.44
			C23.414,95.282,21.637,97.058,19.446,97.058z"/>
		<path style="fill:none;stroke:#030104;stroke-width:0.5;stroke-miterlimit:10;" d="M21.711,87.125
			c-0.524-0.781-1.415-1.294-2.426-1.294h0"/>
		<path style="fill:none;stroke:#030104;stroke-width:0.5;stroke-miterlimit:10;" d="M22.205,88.75c0-0.403-0.082-0.787-0.229-1.136
			"/>
		<path style="fill:#030104;" d="M19.446,96.766L19.446,96.766c-2.047,0-3.706-1.659-3.706-3.706v-4.147
			c0-0.696,0.422,3.627,0.807,4.87c0.406,1.313,0.826,1.625,1.469,2.078c0.862,0.608,2.172,0.484,3.328-0.141
			c0.797-0.431,1.809-2.661,1.809-2.661C23.152,95.107,21.671,96.674,19.446,96.766z"/>
		<path style="fill:#030104;stroke:#030104;stroke-width:0.5;stroke-miterlimit:10;" d="M22.655,106.183l-6.311,0.036
			c-0.471,0.003-0.88-0.325-0.98-0.786l-0.938-4.34c-0.134-0.621,0.339-1.207,0.974-1.207h8.09c0.627,0,1.098,0.572,0.978,1.188
			l-0.841,4.304C23.537,105.843,23.13,106.18,22.655,106.183z"/>
	</g>
	<g>
		<g>
			
				<rect x="16.146" y="95.058" style="fill:#A27A51;stroke:#37404B;stroke-width:0.5;stroke-miterlimit:10;" width="2.599" height="2.827"/>
			<path style="fill:#389A6A;stroke:#37404B;stroke-width:0.5;stroke-miterlimit:10;" d="M17.446,95.058L17.446,95.058
				c-2.192,0-3.968-1.777-3.968-3.968v-4.44c0-2.192,1.777-3.968,3.968-3.968h0c2.192,0,3.968,1.777,3.968,3.968v4.44
				C21.414,93.282,19.637,95.058,17.446,95.058z"/>
			<path style="fill:none;stroke:#60A788;stroke-width:0.5;stroke-miterlimit:10;" d="M19.711,85.125
				c-0.524-0.781-1.415-1.294-2.426-1.294h0"/>
			<path style="fill:none;stroke:#60A788;stroke-width:0.5;stroke-miterlimit:10;" d="M20.205,86.75
				c0-0.403-0.082-0.787-0.229-1.136"/>
			<path style="fill:#2A975E;" d="M17.446,94.766L17.446,94.766c-2.047,0-3.706-1.659-3.706-3.706v-4.147
				c0-0.696,0.422,3.627,0.807,4.87c0.406,1.313,0.826,1.625,1.469,2.078c0.862,0.608,2.172,0.484,3.328-0.141
				c0.797-0.431,1.809-2.661,1.809-2.661C21.152,93.107,19.671,94.674,17.446,94.766z"/>
			<path style="fill:#4D4D4D;stroke:#37404B;stroke-width:0.5;stroke-miterlimit:10;" d="M20.655,104.183l-6.311,0.036
				c-0.471,0.003-0.88-0.325-0.98-0.786l-0.938-4.34c-0.134-0.621,0.339-1.207,0.974-1.207h8.09c0.627,0,1.098,0.572,0.978,1.188
				l-0.841,4.304C21.537,103.843,21.13,104.18,20.655,104.183z"/>
		</g>
	</g>
</g>
<g>
	<g>
		<g>
			<path style="fill:#37404B;" d="M44.734,33.953c3.333,0,6.667,0,10,0c0.484,0,0.484-0.75,0-0.75c-3.333,0-6.667,0-10,0
				C44.251,33.203,44.251,33.953,44.734,33.953L44.734,33.953z"/>
		</g>
	</g>
	<g>
		<g>
			<path style="fill:#37404B;" d="M44.734,38.953c6,0,12,0,18,0c0.484,0,0.484-0.75,0-0.75c-6,0-12,0-18,0
				C44.251,38.203,44.251,38.953,44.734,38.953L44.734,38.953z"/>
		</g>
	</g>
	<g>
		<g>
			<path style="fill:#7794B7;" d="M44.734,40.953c3.667,0,7.333,0,11,0c0.484,0,0.484-0.75,0-0.75c-3.667,0-7.333,0-11,0
				C44.251,40.203,44.251,40.953,44.734,40.953L44.734,40.953z"/>
		</g>
	</g>
</g>
<g>
	<g>
		<g>
			<path style="fill:#4C9F6F;" d="M67.734,33.953c3.333,0,6.667,0,10,0c0.484,0,0.484-0.75,0-0.75c-3.333,0-6.667,0-10,0
				C67.251,33.203,67.251,33.953,67.734,33.953L67.734,33.953z"/>
		</g>
	</g>
	<g>
		<g>
			<path style="fill:#37404B;" d="M67.734,38.953c6,0,12,0,18,0c0.484,0,0.484-0.75,0-0.75c-6,0-12,0-18,0
				C67.251,38.203,67.251,38.953,67.734,38.953L67.734,38.953z"/>
		</g>
	</g>
	<g>
		<g>
			<path style="fill:#37404B;" d="M67.734,40.953c3.667,0,7.333,0,11,0c0.484,0,0.484-0.75,0-0.75c-3.667,0-7.333,0-11,0
				C67.251,40.203,67.251,40.953,67.734,40.953L67.734,40.953z"/>
		</g>
	</g>
</g>
<g>
	<g>
		<g>
			<path style="fill:#37404B;" d="M44.734,48.953c3.333,0,6.667,0,10,0c0.484,0,0.484-0.75,0-0.75c-3.333,0-6.667,0-10,0
				C44.251,48.203,44.251,48.953,44.734,48.953L44.734,48.953z"/>
		</g>
	</g>
	<g>
		<g>
			<path style="fill:#37404B;" d="M44.734,53.953c6,0,12,0,18,0c0.484,0,0.484-0.75,0-0.75c-6,0-12,0-18,0
				C44.251,53.203,44.251,53.953,44.734,53.953L44.734,53.953z"/>
		</g>
	</g>
	<g>
		<g>
			<path style="fill:#37404B;" d="M44.734,55.953c3.667,0,7.333,0,11,0c0.484,0,0.484-0.75,0-0.75c-3.667,0-7.333,0-11,0
				C44.251,55.203,44.251,55.953,44.734,55.953L44.734,55.953z"/>
		</g>
	</g>
</g>
<g>
	<g>
		<g>
			<path style="fill:#B17CAE;" d="M68.734,48.953c3.333,0,6.667,0,10,0c0.484,0,0.484-0.75,0-0.75c-3.333,0-6.667,0-10,0
				C68.251,48.203,68.251,48.953,68.734,48.953L68.734,48.953z"/>
		</g>
	</g>
	<g>
		<g>
			<path style="fill:#789CC6;" d="M68.734,53.953c6,0,12,0,18,0c0.484,0,0.484-0.75,0-0.75c-6,0-12,0-18,0
				C68.251,53.203,68.251,53.953,68.734,53.953L68.734,53.953z"/>
		</g>
	</g>
	<g>
		<g>
			<path style="fill:#37404B;" d="M68.734,55.953c3.667,0,7.333,0,11,0c0.484,0,0.484-0.75,0-0.75c-3.667,0-7.333,0-11,0
				C68.251,55.203,68.251,55.953,68.734,55.953L68.734,55.953z"/>
		</g>
	</g>
</g>
<g>
	<g>
		<path style="fill:#D6E8E7;" d="M115.865,17.269c5.893,5.893,11.785,11.785,17.678,17.678c0.685,0.685,1.745-0.376,1.061-1.061
			c-5.893-5.893-11.785-11.785-17.678-17.678C116.241,15.524,115.181,16.585,115.865,17.269L115.865,17.269z"/>
	</g>
</g>
<g>
	<g>
		<path style="fill:#D6E8E7;" d="M107.865,19.269c4.057,4.057,8.115,8.115,12.172,12.172c0.685,0.685,1.745-0.376,1.061-1.061
			c-4.057-4.057-8.115-8.115-12.172-12.172C108.241,17.524,107.181,18.585,107.865,19.269L107.865,19.269z"/>
	</g>
</g>
<g>
	<g>
		<path style="fill:#D6E8E7;" d="M111.865,31.269c4.057,4.057,8.115,8.115,12.172,12.172c0.685,0.685,1.745-0.376,1.061-1.061
			c-4.057-4.057-8.115-8.115-12.172-12.172C112.241,29.524,111.181,30.585,111.865,31.269L111.865,31.269z"/>
	</g>
</g>
<g>
	<g>
		<path style="fill:#D6E8E7;" d="M115.865,43.269c5.363,5.363,10.726,10.726,16.089,16.089c0.685,0.685,1.745-0.376,1.061-1.061
			c-5.363-5.363-10.726-10.726-16.089-16.089C116.241,41.524,115.181,42.585,115.865,43.269L115.865,43.269z"/>
	</g>
</g>
<g>
	<g>
		<path style="fill:#D6E8E7;" d="M125.865,37.269c2.446,2.446,4.893,4.893,7.339,7.339c0.685,0.685,1.745-0.376,1.061-1.061
			c-2.446-2.446-4.893-4.893-7.339-7.339C126.241,35.524,125.181,36.585,125.865,37.269L125.865,37.269z"/>
	</g>
</g>
<g>
	<g>
		<g style="opacity:0.12;">
			
				<rect x="40.645" y="89.439" transform="matrix(0.0051 1 -1 0.0051 146.7743 62.2273)" style="fill:#030104;" width="2.936" height="30.877"/>
			
				<rect x="40.645" y="89.439" transform="matrix(0.0051 1 -1 0.0051 146.7743 62.2273)" style="fill:none;stroke:#030104;stroke-width:0.5;stroke-miterlimit:10;" width="2.936" height="30.877"/>
		</g>
		<g>
			
				<rect x="38.645" y="87.439" transform="matrix(0.0051 1 -1 0.0051 142.7846 62.2375)" style="fill:#60A787;" width="2.936" height="30.877"/>
			
				<rect x="38.645" y="87.439" transform="matrix(0.0051 1 -1 0.0051 142.7846 62.2375)" style="fill:none;stroke:#37404B;stroke-width:0.5;stroke-miterlimit:10;" width="2.936" height="30.877"/>
		</g>
	</g>
	
		<rect x="55.552" y="101.057" transform="matrix(1 -0.0051 0.0051 1 -0.5258 0.2907)" style="fill:#DCA3C3;stroke:#37404B;stroke-width:0.5;stroke-miterlimit:10;" width="1.892" height="3.473"/>
	<path style="fill:#DCA3C3;stroke:#37404B;stroke-width:0.5;stroke-miterlimit:10;" d="M57.453,104.543l0.001,0.209
		c0.001,0.206-0.165,0.374-0.371,0.375l-7.587,0.039c-0.206,0.001-0.374-0.165-0.375-0.371l-0.001-0.209
		c-0.001-0.206,0.165-0.374,0.371-0.375l7.587-0.039C57.284,104.171,57.452,104.337,57.453,104.543z"/>
	<path style="fill:#DCA3C3;stroke:#37404B;stroke-width:0.5;stroke-miterlimit:10;" d="M16.53,102.998l7.847-1.542
		c0.138-0.027,0.291,0.018,0.291,0.086l0.014,2.828c0,0.068-0.152,0.114-0.291,0.089L16.53,102.998L16.53,102.998z"/>
</g>
<line style="fill:none;stroke:#ABCDBB;stroke-width:0.5;stroke-miterlimit:10;" x1="45.586" y1="102.489" x2="51.153" y2="102.46"/>
<line style="fill:none;stroke:#ABCDBB;stroke-width:0.5;stroke-miterlimit:10;" x1="42.464" y1="102.483" x2="44.443" y2="102.473"/>
<line style="fill:none;stroke:#ABCDBB;stroke-width:0.5;stroke-miterlimit:10;" x1="36.61" y1="102.504" x2="41.766" y2="102.478"/>
<circle style="fill:#CB6355;" cx="104.376" cy="23.811" r="0.983"/>
<circle style="fill:#92B862;" cx="98.847" cy="23.811" r="0.983"/>
<circle style="fill:#F5E268;" cx="101.507" cy="23.811" r="0.983"/>
<rect x="23.634" y="21.875" style="fill:#807E8C;" width="16.991" height="41.036"/>
<g>
	<g>
		<path style="fill:#5DA581;" d="M25.734,29.953c0.339,0,0.677,0,1.016,0c0.484,0,0.484-0.75,0-0.75c-0.339,0-0.677,0-1.016,0
			C25.251,29.203,25.251,29.953,25.734,29.953L25.734,29.953z"/>
	</g>
</g>
<g>
	<g>
		<path style="fill:#D8E0E6;" d="M27.734,32.332c1.995,0,3.99,0,5.984,0c0.484,0,0.484-0.75,0-0.75c-1.995,0-3.99,0-5.984,0
			C27.251,31.582,27.251,32.332,27.734,32.332L27.734,32.332z"/>
	</g>
</g>
<g>
	<g>
		<path style="fill:#D8E0E6;" d="M27.734,33.684c1.219,0,2.438,0,3.657,0c0.484,0,0.484-0.75,0-0.75c-1.219,0-2.438,0-3.657,0
			C27.251,32.934,27.251,33.684,27.734,33.684L27.734,33.684z"/>
	</g>
</g>
<g>
	<g>
		<path style="fill:#BF6133;" d="M25.734,35.953c0.339,0,0.677,0,1.016,0c0.484,0,0.484-0.75,0-0.75c-0.339,0-0.677,0-1.016,0
			C25.251,35.203,25.251,35.953,25.734,35.953L25.734,35.953z"/>
	</g>
</g>
<g>
	<g>
		<path style="fill:#E6E7E7;" d="M27.734,38.332c1.995,0,3.99,0,5.984,0c0.484,0,0.484-0.75,0-0.75c-1.995,0-3.99,0-5.984,0
			C27.251,37.582,27.251,38.332,27.734,38.332L27.734,38.332z"/>
	</g>
</g>
<g>
	<g>
		<path style="fill:#E6E7E7;" d="M27.734,39.684c1.219,0,2.438,0,3.657,0c0.484,0,0.484-0.75,0-0.75c-1.219,0-2.438,0-3.657,0
			C27.251,38.934,27.251,39.684,27.734,39.684L27.734,39.684z"/>
	</g>
</g>
<polyline style="fill:#535164;stroke:#A2AAB0;stroke-width:0.5;stroke-miterlimit:10;" points="40.625,28.417 59.734,28.417 
	59.734,30.083 108.005,30.083 "/>
<line style="fill:none;stroke:#37404B;stroke-width:0.25;stroke-miterlimit:10;" x1="40.625" y1="21.875" x2="40.625" y2="62.911"/>
<g>
	<g>
		<rect x="108.274" y="76.117" style="fill:#C5DDCE;" width="15.53" height="16.163"/>
		<g>
			<path style="fill:#37404B;" d="M123.803,91.905c-5.165,0-10.331,0-15.496,0c0.434,0,0.342,0.632,0.342-0.125
				c0-0.597,0-1.194,0-1.791c0-1.718,0-3.436,0-5.154c0-2.895,0-5.791,0-8.686c0,0.436-0.631,0.342,0.13,0.342
				c0.601,0,1.203,0,1.804,0c1.714,0,3.427,0,5.141,0c1.763,0,3.526,0,5.29,0c0.672,0,1.344,0,2.016,0
				c0.947,0,0.399,0.135,0.399-0.342c0,5.377,0,10.753,0,16.13c0,0.484,0.75,0.484,0.75,0c0-5.388,0-10.775,0-16.163
				c0-0.204-0.171-0.375-0.375-0.375c-5.177,0-10.353,0-15.53,0c-0.204,0-0.375,0.171-0.375,0.375c0,5.388,0,10.775,0,16.163
				c0,0.204,0.171,0.375,0.375,0.375c5.177,0,10.353,0,15.53,0C124.287,92.655,124.287,91.905,123.803,91.905z"/>
		</g>
	</g>
	<g>
		<g>
			<path style="fill:#37404B;" d="M109.821,79.817c0.634,0.53,2.037-0.138,2.291,0.233c0.606,0.884,1.345,0.727,2.218,0.271
				c1.392-0.726,1.854,0.851,3.198-0.083c0.093-0.065,3.6,0.865,3.408-0.26c0.081,0.476,0.804,0.274,0.723-0.199
				c-0.019-0.109-0.037-0.219-0.056-0.328c-0.034-0.199-0.28-0.316-0.461-0.262c-0.511,0.153-1.811,0.693-2.099,0.353
				c-0.288-0.34-0.423-0.479-0.914-0.479c-0.233,0-0.508,0.155-0.681,0.29c-1.305,1.028-0.952,0.06-1.741-0.157
				c-1.219-0.335-1.86,1.089-3.055,0.114c-0.781-0.637-1.822,0.376-2.301-0.024C109.984,78.979,109.45,79.507,109.821,79.817
				L109.821,79.817z"/>
		</g>
	</g>
	<g>
		<g>
			<path style="fill:#37404B;" d="M109.821,82.452c0.634,0.53,2.037-0.138,2.291,0.233c0.606,0.884,1.345,0.727,2.218,0.271
				c1.392-0.726,1.854,0.851,3.198-0.083c0.093-0.065,3.6,0.865,3.408-0.26c0.081,0.476,0.804,0.274,0.723-0.199
				c-0.019-0.109-0.037-0.219-0.056-0.328c-0.034-0.199-0.28-0.316-0.461-0.262c-0.511,0.153-1.811,0.693-2.099,0.353
				c-0.288-0.34-0.423-0.479-0.914-0.479c-0.233,0-0.508,0.155-0.681,0.29c-1.305,1.028-0.952,0.06-1.741-0.157
				c-1.219-0.335-1.86,1.089-3.055,0.114c-0.781-0.637-1.822,0.376-2.301-0.024C109.984,81.614,109.45,82.141,109.821,82.452
				L109.821,82.452z"/>
		</g>
	</g>
	<g>
		<g>
			<path style="fill:#37404B;" d="M121.033,84.556c-0.479,0.4-1.52-0.613-2.301,0.024c-1.195,0.975-1.836-0.449-3.055-0.114
				c-0.196,0.054-0.456,0.237-0.564,0.423c-0.257,0.442-1.452-0.556-1.858-0.556c-0.198,0-0.524,0.018-0.667,0.187
				c-0.629,0.741-1.538,0.181-2.346-0.061c-0.181-0.054-0.427,0.063-0.461,0.262c-0.019,0.109-0.037,0.219-0.056,0.328
				c-0.081,0.473,0.642,0.675,0.723,0.199c-0.042,0.244,1.309,0.681,1.472,0.64c0.382-0.097,1.599-0.644,1.86-0.439
				c0.412,0.324,1.372,0.863,1.782,0.16c0.611-1.049,2.661,1.241,3.475,0.053c0.669-0.976,1.607,0.193,2.526-0.576
				C121.935,84.776,121.401,84.248,121.033,84.556L121.033,84.556z"/>
		</g>
	</g>
	<g>
		<g>
			<path style="fill:#37404B;" d="M121.033,87.191c-0.479,0.4-1.52-0.613-2.301,0.024c-1.195,0.975-1.836-0.449-3.055-0.114
				c-0.196,0.054-0.456,0.237-0.564,0.423c-0.257,0.442-1.452-0.556-1.858-0.556c-0.198,0-0.524,0.018-0.667,0.187
				c-0.629,0.741-1.538,0.181-2.346-0.061c-0.181-0.054-0.427,0.063-0.461,0.262c-0.019,0.109-0.037,0.219-0.056,0.328
				c-0.081,0.473,0.642,0.675,0.723,0.199c-0.042,0.244,1.309,0.681,1.472,0.64c0.382-0.097,1.599-0.644,1.86-0.439
				c0.412,0.324,1.372,0.863,1.782,0.16c0.611-1.049,2.661,1.241,3.475,0.053c0.669-0.976,1.607,0.193,2.526-0.576
				C121.935,87.411,121.401,86.883,121.033,87.191L121.033,87.191z"/>
		</g>
	</g>
</g>
<g>
	<g>
		
			<rect x="122.447" y="81.269" transform="matrix(0.9358 0.3524 -0.3524 0.9358 39.8446 -40.1579)" style="fill:#EFD8E7;" width="15.53" height="16.163"/>
		<g>
			<path style="fill:#37404B;" d="M134.73,99.288c-4.828-1.818-9.655-3.636-14.483-5.454c0.601,0.226,0.606-0.606,0.997-1.644
				c0.593-1.574,1.185-3.148,1.778-4.721c1.038-2.756,2.076-5.512,3.114-8.269c-0.228,0.606,0.651,0.624,1.689,1.015
				c1.586,0.597,3.173,1.195,4.759,1.792c1.645,0.619,3.29,1.239,4.935,1.858c0.652,0.245,1.303,0.491,1.955,0.736
				c0.91,0.343,0.328,0.255,0.473-0.128c-1.893,5.025-3.785,10.051-5.678,15.076c-0.171,0.453,0.554,0.648,0.723,0.199
				c1.899-5.042,3.798-10.084,5.696-15.126c0.077-0.204-0.085-0.395-0.262-0.461c-4.844-1.824-9.689-3.649-14.533-5.473
				c-0.204-0.077-0.395,0.085-0.461,0.262c-1.899,5.042-3.798,10.084-5.696,15.126c-0.077,0.204,0.085,0.395,0.262,0.461
				c4.844,1.824,9.689,3.649,14.533,5.473C134.984,100.182,135.178,99.457,134.73,99.288z"/>
		</g>
	</g>
	<g>
		<g>
			<path style="fill:#37404B;" d="M125.956,83.093c0.315,0.558,2.039,0.809,2.039,0.928c0,1.12,1.188,1.245,2.022,1.091
				c1.354-0.251,1.122,0.68,1.821,1.09c0.426,0.25,1.964-0.343,2.124,0.105c0.498,1.394,1.533,0.819,2.758,0.904
				c-0.121-0.158-0.241-0.316-0.362-0.475c-0.021,0.109-0.042,0.218-0.063,0.327c-0.091,0.472,0.632,0.674,0.723,0.199
				c0.021-0.109,0.042-0.218,0.063-0.327c0.048-0.25-0.106-0.457-0.362-0.475c-0.761-0.053-1.863,0.128-2.163-0.713
				c-0.085-0.239-0.383-0.413-0.611-0.476c-0.361-0.099-0.773,0.061-1.107,0.167c-0.928,0.294-0.719-0.673-1.206-0.906
				c-0.933-0.446-2.383-0.119-2.885-0.984c-0.512-0.882-1.803-0.228-2.145-0.833C126.365,82.294,125.717,82.672,125.956,83.093
				L125.956,83.093z"/>
		</g>
	</g>
	<g>
		<g>
			<path style="fill:#37404B;" d="M125.027,85.559c0.315,0.558,2.039,0.809,2.039,0.928c0,1.12,1.188,1.245,2.022,1.091
				c1.354-0.251,1.122,0.68,1.821,1.09c0.426,0.25,1.964-0.343,2.124,0.105c0.498,1.394,1.533,0.819,2.758,0.904
				c-0.121-0.158-0.241-0.316-0.362-0.475c-0.021,0.109-0.042,0.218-0.063,0.327c-0.091,0.472,0.632,0.674,0.723,0.199
				c0.021-0.109,0.042-0.218,0.063-0.327c0.048-0.25-0.106-0.457-0.362-0.475c-0.761-0.053-1.863,0.128-2.163-0.713
				c-0.085-0.239-0.383-0.413-0.611-0.476c-0.361-0.099-0.773,0.061-1.107,0.167c-0.928,0.294-0.719-0.673-1.206-0.906
				c-0.933-0.446-2.383-0.119-2.885-0.984c-0.512-0.882-1.803-0.228-2.145-0.833C125.437,84.759,124.789,85.137,125.027,85.559
				L125.027,85.559z"/>
		</g>
	</g>
	<g>
		<g>
			<path style="fill:#37404B;" d="M134.815,91.425c-0.846,0.296-1.169-1.384-2.251-0.751c-1.24,0.727-1.653-1.203-2.818-1.203
				c-0.227,0-0.493,0.08-0.672,0.225c-0.431,0.351-1.147-0.993-1.457-1.174c-0.181-0.106-0.572-0.186-0.782-0.069
				c-0.97,0.539-1.489-0.403-2.171-0.923c-0.163-0.124-0.419-0.026-0.513,0.135c-0.056,0.096-0.112,0.191-0.168,0.287
				c-0.245,0.418,0.404,0.796,0.648,0.379c-0.139,0.238,0.831,1.113,1.166,1.15c0.64,0.072,1.469-0.4,1.879,0.278
				c0.301,0.498,0.993,1.229,1.622,0.717c0.688-0.56,2.187,2.011,3.499,1.095c0.532-0.372,1.344,0.882,2.218,0.577
				C135.468,91.99,135.273,91.265,134.815,91.425L134.815,91.425z"/>
		</g>
	</g>
	<g>
		<g>
			<path style="fill:#37404B;" d="M133.886,93.891c-0.846,0.296-1.169-1.384-2.251-0.751c-1.24,0.727-1.653-1.203-2.818-1.203
				c-0.227,0-0.493,0.08-0.672,0.225c-0.431,0.351-1.147-0.993-1.457-1.174c-0.181-0.106-0.572-0.186-0.782-0.069
				c-0.97,0.539-1.489-0.403-2.171-0.923c-0.163-0.124-0.419-0.026-0.513,0.135c-0.056,0.096-0.112,0.191-0.168,0.287
				c-0.245,0.418,0.404,0.796,0.648,0.379c-0.139,0.238,0.831,1.113,1.166,1.15c0.64,0.072,1.469-0.4,1.879,0.278
				c0.301,0.498,0.993,1.229,1.622,0.717c0.688-0.56,2.187,2.011,3.499,1.095c0.532-0.372,1.344,0.882,2.218,0.577
				C134.539,94.455,134.344,93.73,133.886,93.891L133.886,93.891z"/>
		</g>
	</g>
</g>
</svg>
