<?xml version="1.0" encoding="iso-8859-1"?>
<!-- Generator: Adobe Illustrator 18.0.0, SVG Export Plug-In . SVG Version: 6.00 Build 0)  -->
<!DOCTYPE svg PUBLIC "-//W3C//DTD SVG 1.1//EN" "http://www.w3.org/Graphics/SVG/1.1/DTD/svg11.dtd">
<svg version="1.1" id="Camada_1" xmlns="http://www.w3.org/2000/svg" xmlns:xlink="http://www.w3.org/1999/xlink" x="0px" y="0px"
	 viewBox="0 0 154 116.333" style="enable-background:new 0 0 154 116.333;" xml:space="preserve">
<g>
	<g style="opacity:0.12;">
		<path style="fill:#030104;" d="M138.574,92.066H20.228c-5.888,0-10.661-4.773-10.661-10.661V19.238
			c0-5.888,4.773-10.661,10.661-10.661h118.345c5.888,0,10.661,4.773,10.661,10.661v62.167
			C149.234,87.293,144.462,92.066,138.574,92.066z"/>
		<path style="fill:#030104;" d="M138.574,90.941c-23.362,0-46.725,0-70.087,0c-13.465,0-26.93,0-40.395,0c-2.588,0-5.176,0-7.764,0
			c-8.366,0-9.635-7.386-9.635-13.779c0-14.608,0-29.215,0-43.823c0-4.591,0-9.181,0-13.772c0-6.939,5.609-9.864,11.617-9.864
			c27.123,0,54.245,0,81.368,0c10.114,0,20.229,0,30.343,0c1.518,0,3.035,0,4.553,0c8.309,0,9.536,7.453,9.536,13.779
			c0,12.517,0,25.035,0,37.553c0,5.376,0,10.751,0,16.127C148.109,83.708,146.856,90.426,138.574,90.941
			c-1.441,0.09-1.45,2.34,0,2.25c14.605-0.907,11.786-17.444,11.786-27.61c0-14.368,0-28.736,0-43.104
			c0-4.881-0.43-10.083-5.127-12.96c-3.275-2.006-6.42-2.064-10.044-2.064c-11.744,0-23.488,0-35.232,0c-26.216,0-52.432,0-78.649,0
			c-5.087,0-10.434,2.394-12.106,7.634c-1.218,3.818-0.758,8.117-0.758,12.074c0,14.967,0,29.934,0,44.901
			c0,3.502-0.532,7.502,0.123,10.98c1.169,6.207,6.08,10.149,12.358,10.149c9.604,0,19.207,0,28.811,0c28.231,0,56.461,0,84.692,0
			c1.382,0,2.764,0,4.146,0C140.025,93.191,140.025,90.941,138.574,90.941z"/>
	</g>
	<g>
		<path style="fill:#E8F1EB;" d="M132.574,89.066H14.228c-5.888,0-10.661-4.773-10.661-10.661V16.238
			c0-5.888,4.773-10.661,10.661-10.661h118.345c5.888,0,10.661,4.773,10.661,10.661v62.167
			C143.234,84.293,138.462,89.066,132.574,89.066z"/>
		<g>
			<path style="fill:#37404B;" d="M132.574,87.941c-23.362,0-46.725,0-70.087,0c-13.465,0-26.93,0-40.395,0
				c-2.588,0-5.176,0-7.764,0c-8.366,0-9.635-7.386-9.635-13.779c0-14.608,0-29.215,0-43.823c0-4.591,0-9.181,0-13.772
				c0-6.939,5.609-9.864,11.617-9.864c27.123,0,54.245,0,81.368,0c10.114,0,20.229,0,30.343,0c1.518,0,3.035,0,4.553,0
				c8.309,0,9.536,7.453,9.536,13.779c0,12.517,0,25.035,0,37.553c0,5.376,0,10.751,0,16.127
				C142.109,80.708,140.856,87.426,132.574,87.941c-1.441,0.09-1.45,2.34,0,2.25c14.605-0.907,11.786-17.444,11.786-27.61
				c0-14.368,0-28.736,0-43.104c0-4.881-0.43-10.083-5.127-12.96c-3.275-2.006-6.42-2.064-10.044-2.064c-11.744,0-23.488,0-35.232,0
				c-26.216,0-52.432,0-78.649,0c-5.087,0-10.434,2.394-12.106,7.634c-1.218,3.818-0.758,8.117-0.758,12.074
				c0,14.967,0,29.934,0,44.901c0,3.502-0.532,7.502,0.123,10.98c1.169,6.207,6.08,10.149,12.358,10.149c9.604,0,19.207,0,28.811,0
				c28.231,0,56.461,0,84.692,0c1.382,0,2.764,0,4.146,0C134.025,90.191,134.025,87.941,132.574,87.941z"/>
		</g>
	</g>
</g>
<rect x="4.901" y="14.911" style="fill:#BFDBD9;stroke:#37404B;stroke-width:0.75;stroke-miterlimit:10;" width="137" height="55.25"/>
<circle style="fill:#D1D2D2;stroke:#37404B;stroke-width:0.75;stroke-miterlimit:10;" cx="73.818" cy="79.328" r="3.25"/>
<g>
	<g style="opacity:0.12;">
		<polygon style="fill:#030104;" points="92.693,111.411 66.943,111.411 74.484,92.066 85.234,92.066 		"/>
		<path style="fill:#030104;" d="M92.693,110.286c-8.583,0-17.167,0-25.75,0c0.362,0.475,0.723,0.949,1.085,1.424
			c1.606-4.12,3.213-8.241,4.819-12.361c0.845-2.169,1.691-4.337,2.536-6.506c0.369-0.947-1.654,0.348-0.012,0.348
			c1.338,0,2.677,0,4.015,0c1.448,0,2.896,0,4.343,0c1.978,0,0.767,0.073,0.504-0.609c0.759,1.968,1.517,3.936,2.276,5.904
			c1.699,4.408,3.399,8.816,5.098,13.224c0.516,1.339,2.692,0.758,2.17-0.598c-2.486-6.448-4.972-12.897-7.458-19.345
			c-0.183-0.474-0.546-0.826-1.085-0.826c-3.583,0-7.167,0-10.75,0c-0.54,0-0.9,0.352-1.085,0.826
			c-2.514,6.448-5.028,12.897-7.542,19.345c-0.271,0.694,0.411,1.424,1.085,1.424c8.583,0,17.167,0,25.75,0
			C94.144,112.536,94.144,110.286,92.693,110.286z"/>
	</g>
	<g>
		<polygon style="fill:#E8F1EB;" points="86.693,108.411 60.943,108.411 68.484,89.066 79.234,89.066 		"/>
		<g>
			<path style="fill:#37404B;" d="M86.693,107.286c-8.583,0-17.167,0-25.75,0c0.362,0.475,0.723,0.949,1.085,1.424
				c1.606-4.12,3.213-8.241,4.819-12.361c0.845-2.169,1.691-4.337,2.536-6.506c0.369-0.947-1.654,0.348-0.012,0.348
				c1.338,0,2.677,0,4.015,0c1.448,0,2.896,0,4.343,0c1.978,0,0.767,0.073,0.504-0.609c0.759,1.968,1.517,3.936,2.276,5.904
				c1.699,4.408,3.399,8.816,5.098,13.224c0.516,1.339,2.692,0.758,2.17-0.598c-2.486-6.448-4.972-12.897-7.458-19.345
				c-0.183-0.474-0.546-0.826-1.085-0.826c-3.583,0-7.167,0-10.75,0c-0.54,0-0.9,0.352-1.085,0.826
				c-2.514,6.448-5.028,12.897-7.542,19.345c-0.271,0.694,0.411,1.424,1.085,1.424c8.583,0,17.167,0,25.75,0
				C88.144,109.536,88.144,107.286,86.693,107.286z"/>
		</g>
	</g>
</g>
<rect x="28.526" y="23.203" style="fill:#FFFFFF;stroke:#37404B;stroke-width:0.75;stroke-miterlimit:10;" width="84.979" height="41.917"/>
<g>
	<g style="opacity:0.12;">
		
			<rect x="117.239" y="100.846" style="fill:#030104;stroke:#030104;stroke-width:0.5;stroke-miterlimit:10;" width="2.599" height="2.827"/>
		<path style="fill:#030104;stroke:#030104;stroke-width:0.5;stroke-miterlimit:10;" d="M118.538,100.846L118.538,100.846
			c-2.192,0-3.968-1.777-3.968-3.968v-4.44c0-2.192,1.777-3.968,3.968-3.968h0c2.192,0,3.968,1.777,3.968,3.968v4.44
			C122.506,99.069,120.73,100.846,118.538,100.846z"/>
		<path style="fill:none;stroke:#030104;stroke-width:0.5;stroke-miterlimit:10;" d="M120.804,90.912
			c-0.524-0.781-1.415-1.294-2.426-1.294l0,0"/>
		<path style="fill:none;stroke:#030104;stroke-width:0.5;stroke-miterlimit:10;" d="M121.298,92.537
			c0-0.403-0.082-0.787-0.229-1.136"/>
		<path style="fill:#030104;" d="M118.538,100.554L118.538,100.554c-2.047,0-3.706-1.659-3.706-3.706V92.7
			c0-0.696,0.422,3.627,0.807,4.87c0.406,1.313,0.826,1.625,1.469,2.078c0.862,0.608,2.172,0.484,3.328-0.141
			c0.797-0.431,1.809-2.661,1.809-2.661C122.245,98.894,120.763,100.461,118.538,100.554z"/>
		<path style="fill:#030104;stroke:#030104;stroke-width:0.5;stroke-miterlimit:10;" d="M121.748,109.97l-6.311,0.036
			c-0.471,0.003-0.88-0.325-0.98-0.786l-0.938-4.34c-0.134-0.621,0.339-1.207,0.974-1.207h8.09c0.627,0,1.098,0.572,0.978,1.188
			l-0.841,4.304C122.629,109.63,122.222,109.967,121.748,109.97z"/>
	</g>
	<g>
		<g>
			
				<rect x="115.239" y="98.846" style="fill:#A27A51;stroke:#37404B;stroke-width:0.5;stroke-miterlimit:10;" width="2.599" height="2.827"/>
			<path style="fill:#389A6A;stroke:#37404B;stroke-width:0.5;stroke-miterlimit:10;" d="M116.538,98.846L116.538,98.846
				c-2.192,0-3.968-1.777-3.968-3.968v-4.44c0-2.192,1.777-3.968,3.968-3.968h0c2.192,0,3.968,1.777,3.968,3.968v4.44
				C120.506,97.069,118.73,98.846,116.538,98.846z"/>
			<path style="fill:none;stroke:#60A788;stroke-width:0.5;stroke-miterlimit:10;" d="M118.804,88.912
				c-0.524-0.781-1.415-1.294-2.426-1.294l0,0"/>
			<path style="fill:none;stroke:#60A788;stroke-width:0.5;stroke-miterlimit:10;" d="M119.298,90.537
				c0-0.403-0.082-0.787-0.229-1.136"/>
			<path style="fill:#2A975E;" d="M116.538,98.554L116.538,98.554c-2.047,0-3.706-1.659-3.706-3.706V90.7
				c0-0.696,0.422,3.627,0.807,4.87c0.406,1.313,0.826,1.625,1.469,2.078c0.862,0.608,2.172,0.484,3.328-0.141
				c0.797-0.431,1.809-2.661,1.809-2.661C120.245,96.894,118.763,98.461,116.538,98.554z"/>
			<path style="fill:#4D4D4D;stroke:#37404B;stroke-width:0.5;stroke-miterlimit:10;" d="M119.748,107.97l-6.311,0.036
				c-0.471,0.003-0.88-0.325-0.98-0.786l-0.938-4.34c-0.134-0.621,0.339-1.207,0.974-1.207h8.09c0.627,0,1.098,0.572,0.978,1.188
				l-0.841,4.304C120.629,107.63,120.222,107.967,119.748,107.97z"/>
		</g>
	</g>
</g>
<g>
	<g style="opacity:0.12;">
		
			<rect x="105.88" y="98.818" style="fill:#030104;stroke:#030104;stroke-width:0.5;stroke-miterlimit:10;" width="2.599" height="2.827"/>
		<path style="fill:#030104;stroke:#030104;stroke-width:0.5;stroke-miterlimit:10;" d="M107.18,98.818L107.18,98.818
			c-2.192,0-3.968-1.777-3.968-3.968v-4.44c0-2.192,1.777-3.968,3.968-3.968h0c2.192,0,3.968,1.777,3.968,3.968v4.44
			C111.148,97.041,109.371,98.818,107.18,98.818z"/>
		<path style="fill:none;stroke:#030104;stroke-width:0.5;stroke-miterlimit:10;" d="M109.445,88.885
			c-0.524-0.781-1.415-1.294-2.426-1.294l0,0"/>
		<path style="fill:none;stroke:#030104;stroke-width:0.5;stroke-miterlimit:10;" d="M109.939,90.51
			c0-0.403-0.082-0.787-0.229-1.136"/>
		<path style="fill:#030104;" d="M107.18,98.526L107.18,98.526c-2.047,0-3.706-1.659-3.706-3.706v-4.147
			c0-0.696,0.422,3.627,0.807,4.87c0.406,1.313,0.826,1.625,1.469,2.078c0.862,0.608,2.172,0.484,3.328-0.141
			c0.797-0.431,1.809-2.661,1.809-2.661C110.886,96.867,109.405,98.433,107.18,98.526z"/>
		<path style="fill:#030104;stroke:#030104;stroke-width:0.5;stroke-miterlimit:10;" d="M110.389,107.943l-6.311,0.036
			c-0.471,0.003-0.88-0.325-0.98-0.786l-0.938-4.34c-0.134-0.621,0.339-1.207,0.974-1.207h8.09c0.627,0,1.098,0.572,0.978,1.188
			l-0.841,4.304C111.271,107.603,110.864,107.94,110.389,107.943z"/>
	</g>
	<g>
		<g>
			
				<rect x="103.88" y="96.818" style="fill:#A27A51;stroke:#37404B;stroke-width:0.5;stroke-miterlimit:10;" width="2.599" height="2.827"/>
			<path style="fill:#389A6A;stroke:#37404B;stroke-width:0.5;stroke-miterlimit:10;" d="M105.18,96.818L105.18,96.818
				c-2.192,0-3.968-1.777-3.968-3.968v-4.44c0-2.192,1.777-3.968,3.968-3.968h0c2.192,0,3.968,1.777,3.968,3.968v4.44
				C109.148,95.041,107.371,96.818,105.18,96.818z"/>
			<path style="fill:none;stroke:#60A788;stroke-width:0.5;stroke-miterlimit:10;" d="M107.445,86.885
				c-0.524-0.781-1.415-1.294-2.426-1.294l0,0"/>
			<path style="fill:none;stroke:#60A788;stroke-width:0.5;stroke-miterlimit:10;" d="M107.939,88.51
				c0-0.403-0.082-0.787-0.229-1.136"/>
			<path style="fill:#2A975E;" d="M105.18,96.526L105.18,96.526c-2.047,0-3.706-1.659-3.706-3.706v-4.147
				c0-0.696,0.422,3.627,0.807,4.87c0.406,1.313,0.826,1.625,1.469,2.078c0.862,0.608,2.172,0.484,3.328-0.141
				c0.797-0.431,1.809-2.661,1.809-2.661C108.886,94.867,107.405,96.433,105.18,96.526z"/>
			<path style="fill:#4D4D4D;stroke:#37404B;stroke-width:0.5;stroke-miterlimit:10;" d="M108.389,105.943l-6.311,0.036
				c-0.471,0.003-0.88-0.325-0.98-0.786l-0.938-4.34c-0.134-0.621,0.339-1.207,0.974-1.207h8.09c0.627,0,1.098,0.572,0.978,1.188
				l-0.841,4.304C109.271,105.603,108.864,105.94,108.389,105.943z"/>
		</g>
	</g>
</g>
<g>
	<g>
		<path style="fill:#D6E8E7;" d="M116.365,19.103c5.893,5.893,11.785,11.785,17.678,17.678c0.685,0.685,1.745-0.376,1.061-1.061
			c-5.893-5.893-11.785-11.785-17.678-17.678C116.741,17.357,115.681,18.418,116.365,19.103L116.365,19.103z"/>
	</g>
</g>
<g>
	<g>
		<path style="fill:#D6E8E7;" d="M114.365,34.103c4.057,4.057,8.115,8.115,12.172,12.172c0.685,0.685,1.745-0.376,1.061-1.061
			c-4.057-4.057-8.115-8.115-12.172-12.172C114.741,32.357,113.681,33.418,114.365,34.103L114.365,34.103z"/>
	</g>
</g>
<g>
	<g>
		<path style="fill:#D6E8E7;" d="M116.365,45.103c5.363,5.363,10.726,10.726,16.089,16.089c0.685,0.685,1.745-0.376,1.061-1.061
			c-5.363-5.363-10.726-10.726-16.089-16.089C116.741,43.357,115.681,44.418,116.365,45.103L116.365,45.103z"/>
	</g>
</g>
<g>
	<g>
		<path style="fill:#D6E8E7;" d="M126.365,39.103c2.446,2.446,4.893,4.893,7.339,7.339c0.685,0.685,1.745-0.376,1.061-1.061
			c-2.446-2.446-4.893-4.893-7.339-7.339C126.741,37.357,125.681,38.418,126.365,39.103L126.365,39.103z"/>
	</g>
</g>
<g>
	<g>
		<g style="opacity:0.12;">
			
				<rect x="117.554" y="96.027" transform="matrix(0.0051 1 -1 0.0051 229.876 -8.1266)" style="fill:#030104;" width="2.936" height="30.877"/>
			
				<rect x="117.554" y="96.027" transform="matrix(0.0051 1 -1 0.0051 229.876 -8.1266)" style="fill:none;stroke:#030104;stroke-width:0.5;stroke-miterlimit:10;" width="2.936" height="30.877"/>
		</g>
		<g>
			
				<rect x="115.554" y="94.027" transform="matrix(0.0051 1 -1 0.0051 225.8863 -8.1164)" style="fill:#60A787;" width="2.936" height="30.877"/>
			
				<rect x="115.554" y="94.027" transform="matrix(0.0051 1 -1 0.0051 225.8863 -8.1164)" style="fill:none;stroke:#37404B;stroke-width:0.5;stroke-miterlimit:10;" width="2.936" height="30.877"/>
		</g>
	</g>
	
		<rect x="132.46" y="107.644" transform="matrix(1 -0.0051 0.0051 1 -0.5585 0.6847)" style="fill:#DCA3C3;stroke:#37404B;stroke-width:0.5;stroke-miterlimit:10;" width="1.892" height="3.473"/>
	<path style="fill:#DCA3C3;stroke:#37404B;stroke-width:0.5;stroke-miterlimit:10;" d="M134.362,111.13l0.001,0.209
		c0.001,0.206-0.165,0.374-0.371,0.375l-7.587,0.039c-0.206,0.001-0.374-0.165-0.375-0.371l-0.001-0.209
		c-0.001-0.206,0.165-0.374,0.371-0.375l7.587-0.039C134.193,110.758,134.361,110.924,134.362,111.13z"/>
	<path style="fill:#DCA3C3;stroke:#37404B;stroke-width:0.5;stroke-miterlimit:10;" d="M93.438,109.586l7.847-1.542
		c0.138-0.027,0.291,0.018,0.291,0.086l0.014,2.828c0,0.068-0.152,0.114-0.291,0.089L93.438,109.586L93.438,109.586z"/>
</g>
<line style="fill:none;stroke:#ABCDBB;stroke-width:0.5;stroke-miterlimit:10;" x1="123.877" y1="109.394" x2="129.033" y2="109.368"/>
<line style="fill:none;stroke:#ABCDBB;stroke-width:0.5;stroke-miterlimit:10;" x1="116.464" y1="109.381" x2="121.62" y2="109.355"/>
<circle style="fill:#CB6355;" cx="109.876" cy="25.644" r="0.983"/>
<circle style="fill:#92B862;" cx="104.347" cy="25.644" r="0.983"/>
<circle style="fill:#F5E268;" cx="107.007" cy="25.644" r="0.983"/>
<rect x="28.302" y="23.643" style="fill:#807E8C;" width="8.844" height="41.036"/>
<g>
	<g>
		<path style="fill:#5DA581;" d="M31.25,31.036c-0.339,0-0.677,0-1.016,0c-0.484,0-0.484,0.75,0,0.75c0.339,0,0.677,0,1.016,0
			C31.734,31.786,31.734,31.036,31.25,31.036L31.25,31.036z"/>
	</g>
</g>
<g>
	<g>
		<path style="fill:#BF6133;" d="M31.25,29.036c-0.339,0-0.677,0-1.016,0c-0.484,0-0.484,0.75,0,0.75c0.339,0,0.677,0,1.016,0
			C31.734,29.786,31.734,29.036,31.25,29.036L31.25,29.036z"/>
	</g>
</g>
<g>
	<g>
		<path style="fill:#5DA581;" d="M31.25,35.036c-0.339,0-0.677,0-1.016,0c-0.484,0-0.484,0.75,0,0.75c0.339,0,0.677,0,1.016,0
			C31.734,35.786,31.734,35.036,31.25,35.036L31.25,35.036z"/>
	</g>
</g>
<g>
	<g>
		<path style="fill:#BF6133;" d="M31.25,33.036c-0.339,0-0.677,0-1.016,0c-0.484,0-0.484,0.75,0,0.75c0.339,0,0.677,0,1.016,0
			C31.734,33.786,31.734,33.036,31.25,33.036L31.25,33.036z"/>
	</g>
</g>
<g>
	<g>
		<path style="fill:#5DA581;" d="M31.25,39.036c-0.339,0-0.677,0-1.016,0c-0.484,0-0.484,0.75,0,0.75c0.339,0,0.677,0,1.016,0
			C31.734,39.786,31.734,39.036,31.25,39.036L31.25,39.036z"/>
	</g>
</g>
<g>
	<g>
		<path style="fill:#BF6133;" d="M31.25,37.036c-0.339,0-0.677,0-1.016,0c-0.484,0-0.484,0.75,0,0.75c0.339,0,0.677,0,1.016,0
			C31.734,37.786,31.734,37.036,31.25,37.036L31.25,37.036z"/>
	</g>
</g>
<line style="fill:none;stroke:#37404B;stroke-width:0.25;stroke-miterlimit:10;" x1="37.146" y1="23.643" x2="37.146" y2="64.679"/>
<g>
	<g>
		<g>
			<path style="fill:#B3B6B4;" d="M56.006,53.308c0.354-10.931,8.636-19.214,19.567-19.567c10.925-0.353,19.231,9.173,19.567,19.567
				c0.062,1.93,3.063,1.936,3,0c-0.407-12.582-9.986-22.16-22.567-22.567c-12.577-0.407-22.18,10.594-22.567,22.567
				C52.943,55.243,55.943,55.237,56.006,53.308L56.006,53.308z"/>
		</g>
	</g>
	<g>
		<path style="fill:#FFFFFF;" d="M72.14,32.24L72.14,32.24c0-1.896,1.537-3.433,3.433-3.433l0,0c1.896,0,3.433,1.537,3.433,3.433v0
			c0,1.896-1.537,3.433-3.433,3.433l0,0C73.677,35.673,72.14,34.136,72.14,32.24z"/>
		<g>
			<path style="fill:#C85658;" d="M73.64,32.24c0-2.52,3.733-2.482,3.866,0C77.641,34.744,73.774,34.73,73.64,32.24
				c-0.104-1.924-3.104-1.934-3,0c0.144,2.675,2.145,4.933,4.933,4.933c2.679,0,4.933-2.254,4.933-4.933
				c0-2.679-2.254-4.933-4.933-4.933c-2.679,0-4.933,2.254-4.933,4.933C70.64,34.175,73.64,34.175,73.64,32.24z"/>
		</g>
	</g>
	<g>
		<rect x="93.207" y="49.875" style="fill:#FFFFFF;" width="6.866" height="6.866"/>
		<g>
			<path style="fill:#91ABBD;" d="M94.707,56.741c0-2.289,0-4.577,0-6.866c-0.5,0.5-1,1-1.5,1.5c2.289,0,4.577,0,6.866,0
				c-0.5-0.5-1-1-1.5-1.5c0,2.289,0,4.577,0,6.866c0.5-0.5,1-1,1.5-1.5c-2.289,0-4.577,0-6.866,0c-1.935,0-1.935,3,0,3
				c2.289,0,4.577,0,6.866,0c0.818,0,1.5-0.682,1.5-1.5c0-2.289,0-4.577,0-6.866c0-0.818-0.682-1.5-1.5-1.5
				c-2.289,0-4.577,0-6.866,0c-0.818,0-1.5,0.682-1.5,1.5c0,2.289,0,4.577,0,6.866C91.707,58.675,94.707,58.675,94.707,56.741z"/>
		</g>
	</g>
	<g>
		<rect x="51.072" y="49.875" style="fill:#FFFFFF;" width="6.866" height="6.866"/>
		<g>
			<path style="fill:#6EA788;" d="M52.572,56.741c0-2.289,0-4.577,0-6.866c-0.5,0.5-1,1-1.5,1.5c2.289,0,4.577,0,6.866,0
				c-0.5-0.5-1-1-1.5-1.5c0,2.289,0,4.577,0,6.866c0.5-0.5,1-1,1.5-1.5c-2.289,0-4.577,0-6.866,0c-1.935,0-1.935,3,0,3
				c2.289,0,4.577,0,6.866,0c0.818,0,1.5-0.682,1.5-1.5c0-2.289,0-4.577,0-6.866c0-0.818-0.682-1.5-1.5-1.5
				c-2.289,0-4.577,0-6.866,0c-0.818,0-1.5,0.682-1.5,1.5c0,2.289,0,4.577,0,6.866C49.572,58.675,52.572,58.675,52.572,56.741z"/>
		</g>
	</g>
	<g>
		<g>
			<g>
				<line style="fill:#FFFFFF;" x1="75.578" y1="35.673" x2="70.539" y2="50.932"/>
				<g>
					<path style="fill:#23253E;" d="M74.132,35.275c-1.68,5.086-3.36,10.172-5.039,15.259c-0.608,1.842,2.289,2.625,2.893,0.798
						c1.68-5.086,3.36-10.172,5.039-15.259C77.633,34.23,74.735,33.447,74.132,35.275L74.132,35.275z"/>
				</g>
			</g>
			<g>
				<polyline style="fill:#FFFFFF;" points="80.618,50.932 75.578,35.673 75.578,48.115 				"/>
				<g>
					<path style="fill:#23253E;" d="M82.064,50.533c-1.68-5.086-3.36-10.172-5.039-15.259c-0.522-1.581-2.946-1.342-2.946,0.399
						c0,4.147,0,8.294,0,12.442c0,1.935,3,1.935,3,0c0-4.147,0-8.294,0-12.442c-0.982,0.133-1.964,0.266-2.946,0.399
						c1.68,5.086,3.36,10.172,5.039,15.259C79.775,53.159,82.672,52.376,82.064,50.533L82.064,50.533z"/>
				</g>
			</g>
		</g>
		<g>
			<path style="fill:#FFFFFF;" d="M70.482,51.18c0,0,3.789,5.822,2.158,8.466"/>
			<g>
				<path style="fill:#23253E;" d="M69.187,51.937c1.046,1.623,3.193,5.007,2.158,6.951c-0.909,1.707,1.681,3.222,2.59,1.514
					c1.675-3.147-0.415-7.275-2.158-9.98C70.734,48.803,68.136,50.306,69.187,51.937L69.187,51.937z"/>
			</g>
		</g>
		<g>
			<path style="fill:#FFFFFF;" d="M80.664,51.18c0,0-3.789,5.822-2.158,8.466"/>
			<g>
				<path style="fill:#23253E;" d="M79.368,50.423c-1.743,2.704-3.833,6.833-2.158,9.98c0.909,1.708,3.499,0.193,2.59-1.514
					c-1.035-1.944,1.112-5.328,2.158-6.951C83.01,50.306,80.412,48.803,79.368,50.423L79.368,50.423z"/>
			</g>
		</g>
	</g>
</g>
</svg>
